%TF.GenerationSoftware,KiCad,Pcbnew,9.0.6*%
%TF.CreationDate,2025-12-05T12:09:10+01:00*%
%TF.ProjectId,Vikingboard,56696b69-6e67-4626-9f61-72642e6b6963,rev?*%
%TF.SameCoordinates,Original*%
%TF.FileFunction,Soldermask,Bot*%
%TF.FilePolarity,Negative*%
%FSLAX46Y46*%
G04 Gerber Fmt 4.6, Leading zero omitted, Abs format (unit mm)*
G04 Created by KiCad (PCBNEW 9.0.6) date 2025-12-05 12:09:10*
%MOMM*%
%LPD*%
G01*
G04 APERTURE LIST*
%ADD10R,1.700000X1.700000*%
%ADD11C,1.700000*%
G04 APERTURE END LIST*
D10*
%TO.C,U2*%
X111000000Y-90800000D03*
D11*
X111000000Y-93340000D03*
X111000000Y-95880000D03*
X111000000Y-98420000D03*
X111000000Y-100960000D03*
X111000000Y-103500000D03*
X111000000Y-106040000D03*
X111000000Y-108580000D03*
%TD*%
D10*
%TO.C,U1*%
X59410000Y-69840000D03*
D11*
X59410000Y-72380000D03*
X59410000Y-74920000D03*
X59410000Y-77460000D03*
X59410000Y-80000000D03*
X59410000Y-82540000D03*
X59410000Y-85080000D03*
X59410000Y-87620000D03*
%TD*%
D10*
%TO.C,U7*%
X77770000Y-69840000D03*
D11*
X77770000Y-72380000D03*
X77770000Y-74920000D03*
X77770000Y-77460000D03*
X77770000Y-80000000D03*
X77770000Y-82540000D03*
X77770000Y-85080000D03*
X77770000Y-87620000D03*
%TD*%
D10*
%TO.C,U3*%
X64000000Y-69840000D03*
D11*
X64000000Y-72380000D03*
X64000000Y-74920000D03*
X64000000Y-77460000D03*
X64000000Y-80000000D03*
X64000000Y-82540000D03*
X64000000Y-85080000D03*
X64000000Y-87620000D03*
%TD*%
D10*
%TO.C,U6*%
X73180000Y-69840000D03*
D11*
X73180000Y-72380000D03*
X73180000Y-74920000D03*
X73180000Y-77460000D03*
X73180000Y-80000000D03*
X73180000Y-82540000D03*
X73180000Y-85080000D03*
X73180000Y-87620000D03*
%TD*%
D10*
%TO.C,J1*%
X50230000Y-69840000D03*
D11*
X50230000Y-72380000D03*
X50230000Y-74920000D03*
X50230000Y-77460000D03*
X50230000Y-80000000D03*
X50230000Y-82540000D03*
X50230000Y-85080000D03*
X50230000Y-87620000D03*
%TD*%
D10*
%TO.C,J2*%
X54820000Y-69840000D03*
D11*
X54820000Y-72380000D03*
X54820000Y-74920000D03*
X54820000Y-77460000D03*
X54820000Y-80000000D03*
X54820000Y-82540000D03*
X54820000Y-85080000D03*
X54820000Y-87620000D03*
%TD*%
D10*
%TO.C,U4*%
X68590000Y-69840000D03*
D11*
X68590000Y-72380000D03*
X68590000Y-74920000D03*
X68590000Y-77460000D03*
X68590000Y-80000000D03*
X68590000Y-82540000D03*
X68590000Y-85080000D03*
X68590000Y-87620000D03*
%TD*%
D10*
%TO.C,U5*%
X126000000Y-90760000D03*
D11*
X126000000Y-93300000D03*
X126000000Y-95840000D03*
X126000000Y-98380000D03*
X126000000Y-100920000D03*
X126000000Y-103460000D03*
X126000000Y-106000000D03*
X126000000Y-108540000D03*
%TD*%
M02*
