M48
; DRILL file {KiCad 9.0.6} date 2025-12-05T22:13:45+0100
; FORMAT={-:-/ absolute / metric / decimal}
; #@! TF.CreationDate,2025-12-05T22:13:45+01:00
; #@! TF.GenerationSoftware,Kicad,Pcbnew,9.0.6
; #@! TF.FileFunction,MixedPlating,1,2
FMAT,2
METRIC
; #@! TA.AperFunction,Plated,PTH,ViaDrill
T1C0.300
; #@! TA.AperFunction,Plated,PTH,ComponentDrill
T2C1.000
%
G90
G05
T1
X51.828Y-97.957
X52.427Y-100.872
X53.125Y-101.695
X55.763Y-103.788
X62.748Y-76.053
X73.876Y-95.224
X74.369Y-88.696
X108.962Y-82.815
X123.706Y-89.21
X123.74Y-74.632
T2
X50.23Y-69.84
X50.23Y-72.38
X50.23Y-74.92
X50.23Y-77.46
X50.23Y-80.0
X50.23Y-82.54
X50.23Y-85.08
X50.23Y-87.62
X54.82Y-69.84
X54.82Y-72.38
X54.82Y-74.92
X54.82Y-77.46
X54.82Y-80.0
X54.82Y-82.54
X54.82Y-85.08
X54.82Y-87.62
X59.41Y-69.84
X59.41Y-72.38
X59.41Y-74.92
X59.41Y-77.46
X59.41Y-80.0
X59.41Y-82.54
X59.41Y-85.08
X59.41Y-87.62
X64.0Y-69.84
X64.0Y-72.38
X64.0Y-74.92
X64.0Y-77.46
X64.0Y-80.0
X64.0Y-82.54
X64.0Y-85.08
X64.0Y-87.62
X68.59Y-69.84
X68.59Y-72.38
X68.59Y-74.92
X68.59Y-77.46
X68.59Y-80.0
X68.59Y-82.54
X68.59Y-85.08
X68.59Y-87.62
X73.18Y-69.84
X73.18Y-72.38
X73.18Y-74.92
X73.18Y-77.46
X73.18Y-80.0
X73.18Y-82.54
X73.18Y-85.08
X73.18Y-87.62
X77.77Y-69.84
X77.77Y-72.38
X77.77Y-74.92
X77.77Y-77.46
X77.77Y-80.0
X77.77Y-82.54
X77.77Y-85.08
X77.77Y-87.62
X111.0Y-90.8
X111.0Y-93.34
X111.0Y-95.88
X111.0Y-98.42
X111.0Y-100.96
X111.0Y-103.5
X111.0Y-106.04
X111.0Y-108.58
X126.0Y-90.76
X126.0Y-93.3
X126.0Y-95.84
X126.0Y-98.38
X126.0Y-100.92
X126.0Y-103.46
X126.0Y-106.0
X126.0Y-108.54
M30
