%TF.GenerationSoftware,KiCad,Pcbnew,9.0.6*%
%TF.CreationDate,2025-12-05T05:14:20+01:00*%
%TF.ProjectId,Vikingboard,56696b69-6e67-4626-9f61-72642e6b6963,rev?*%
%TF.SameCoordinates,Original*%
%TF.FileFunction,AssemblyDrawing,Top*%
%FSLAX46Y46*%
G04 Gerber Fmt 4.6, Leading zero omitted, Abs format (unit mm)*
G04 Created by KiCad (PCBNEW 9.0.6) date 2025-12-05 05:14:20*
%MOMM*%
%LPD*%
G01*
G04 APERTURE LIST*
%ADD10C,0.150000*%
%ADD11C,0.100000*%
G04 APERTURE END LIST*
D10*
X106023809Y-111414819D02*
X106023809Y-110414819D01*
X106023809Y-110414819D02*
X106261904Y-110414819D01*
X106261904Y-110414819D02*
X106404761Y-110462438D01*
X106404761Y-110462438D02*
X106499999Y-110557676D01*
X106499999Y-110557676D02*
X106547618Y-110652914D01*
X106547618Y-110652914D02*
X106595237Y-110843390D01*
X106595237Y-110843390D02*
X106595237Y-110986247D01*
X106595237Y-110986247D02*
X106547618Y-111176723D01*
X106547618Y-111176723D02*
X106499999Y-111271961D01*
X106499999Y-111271961D02*
X106404761Y-111367200D01*
X106404761Y-111367200D02*
X106261904Y-111414819D01*
X106261904Y-111414819D02*
X106023809Y-111414819D01*
X107595237Y-111414819D02*
X107261904Y-110938628D01*
X107023809Y-111414819D02*
X107023809Y-110414819D01*
X107023809Y-110414819D02*
X107404761Y-110414819D01*
X107404761Y-110414819D02*
X107499999Y-110462438D01*
X107499999Y-110462438D02*
X107547618Y-110510057D01*
X107547618Y-110510057D02*
X107595237Y-110605295D01*
X107595237Y-110605295D02*
X107595237Y-110748152D01*
X107595237Y-110748152D02*
X107547618Y-110843390D01*
X107547618Y-110843390D02*
X107499999Y-110891009D01*
X107499999Y-110891009D02*
X107404761Y-110938628D01*
X107404761Y-110938628D02*
X107023809Y-110938628D01*
X107880952Y-110414819D02*
X108214285Y-111414819D01*
X108214285Y-111414819D02*
X108547618Y-110414819D01*
X108833333Y-110510057D02*
X108880952Y-110462438D01*
X108880952Y-110462438D02*
X108976190Y-110414819D01*
X108976190Y-110414819D02*
X109214285Y-110414819D01*
X109214285Y-110414819D02*
X109309523Y-110462438D01*
X109309523Y-110462438D02*
X109357142Y-110510057D01*
X109357142Y-110510057D02*
X109404761Y-110605295D01*
X109404761Y-110605295D02*
X109404761Y-110700533D01*
X109404761Y-110700533D02*
X109357142Y-110843390D01*
X109357142Y-110843390D02*
X108785714Y-111414819D01*
X108785714Y-111414819D02*
X109404761Y-111414819D01*
X110261904Y-110414819D02*
X110071428Y-110414819D01*
X110071428Y-110414819D02*
X109976190Y-110462438D01*
X109976190Y-110462438D02*
X109928571Y-110510057D01*
X109928571Y-110510057D02*
X109833333Y-110652914D01*
X109833333Y-110652914D02*
X109785714Y-110843390D01*
X109785714Y-110843390D02*
X109785714Y-111224342D01*
X109785714Y-111224342D02*
X109833333Y-111319580D01*
X109833333Y-111319580D02*
X109880952Y-111367200D01*
X109880952Y-111367200D02*
X109976190Y-111414819D01*
X109976190Y-111414819D02*
X110166666Y-111414819D01*
X110166666Y-111414819D02*
X110261904Y-111367200D01*
X110261904Y-111367200D02*
X110309523Y-111319580D01*
X110309523Y-111319580D02*
X110357142Y-111224342D01*
X110357142Y-111224342D02*
X110357142Y-110986247D01*
X110357142Y-110986247D02*
X110309523Y-110891009D01*
X110309523Y-110891009D02*
X110261904Y-110843390D01*
X110261904Y-110843390D02*
X110166666Y-110795771D01*
X110166666Y-110795771D02*
X109976190Y-110795771D01*
X109976190Y-110795771D02*
X109880952Y-110843390D01*
X109880952Y-110843390D02*
X109833333Y-110891009D01*
X109833333Y-110891009D02*
X109785714Y-110986247D01*
X110976190Y-110414819D02*
X111071428Y-110414819D01*
X111071428Y-110414819D02*
X111166666Y-110462438D01*
X111166666Y-110462438D02*
X111214285Y-110510057D01*
X111214285Y-110510057D02*
X111261904Y-110605295D01*
X111261904Y-110605295D02*
X111309523Y-110795771D01*
X111309523Y-110795771D02*
X111309523Y-111033866D01*
X111309523Y-111033866D02*
X111261904Y-111224342D01*
X111261904Y-111224342D02*
X111214285Y-111319580D01*
X111214285Y-111319580D02*
X111166666Y-111367200D01*
X111166666Y-111367200D02*
X111071428Y-111414819D01*
X111071428Y-111414819D02*
X110976190Y-111414819D01*
X110976190Y-111414819D02*
X110880952Y-111367200D01*
X110880952Y-111367200D02*
X110833333Y-111319580D01*
X110833333Y-111319580D02*
X110785714Y-111224342D01*
X110785714Y-111224342D02*
X110738095Y-111033866D01*
X110738095Y-111033866D02*
X110738095Y-110795771D01*
X110738095Y-110795771D02*
X110785714Y-110605295D01*
X110785714Y-110605295D02*
X110833333Y-110510057D01*
X110833333Y-110510057D02*
X110880952Y-110462438D01*
X110880952Y-110462438D02*
X110976190Y-110414819D01*
X112214285Y-110414819D02*
X111738095Y-110414819D01*
X111738095Y-110414819D02*
X111690476Y-110891009D01*
X111690476Y-110891009D02*
X111738095Y-110843390D01*
X111738095Y-110843390D02*
X111833333Y-110795771D01*
X111833333Y-110795771D02*
X112071428Y-110795771D01*
X112071428Y-110795771D02*
X112166666Y-110843390D01*
X112166666Y-110843390D02*
X112214285Y-110891009D01*
X112214285Y-110891009D02*
X112261904Y-110986247D01*
X112261904Y-110986247D02*
X112261904Y-111224342D01*
X112261904Y-111224342D02*
X112214285Y-111319580D01*
X112214285Y-111319580D02*
X112166666Y-111367200D01*
X112166666Y-111367200D02*
X112071428Y-111414819D01*
X112071428Y-111414819D02*
X111833333Y-111414819D01*
X111833333Y-111414819D02*
X111738095Y-111367200D01*
X111738095Y-111367200D02*
X111690476Y-111319580D01*
X113166666Y-111414819D02*
X112690476Y-111414819D01*
X112690476Y-111414819D02*
X112690476Y-110414819D01*
X113500000Y-111414819D02*
X113500000Y-110414819D01*
X113500000Y-110414819D02*
X113738095Y-110414819D01*
X113738095Y-110414819D02*
X113880952Y-110462438D01*
X113880952Y-110462438D02*
X113976190Y-110557676D01*
X113976190Y-110557676D02*
X114023809Y-110652914D01*
X114023809Y-110652914D02*
X114071428Y-110843390D01*
X114071428Y-110843390D02*
X114071428Y-110986247D01*
X114071428Y-110986247D02*
X114023809Y-111176723D01*
X114023809Y-111176723D02*
X113976190Y-111271961D01*
X113976190Y-111271961D02*
X113880952Y-111367200D01*
X113880952Y-111367200D02*
X113738095Y-111414819D01*
X113738095Y-111414819D02*
X113500000Y-111414819D01*
X115023809Y-110462438D02*
X114928571Y-110414819D01*
X114928571Y-110414819D02*
X114785714Y-110414819D01*
X114785714Y-110414819D02*
X114642857Y-110462438D01*
X114642857Y-110462438D02*
X114547619Y-110557676D01*
X114547619Y-110557676D02*
X114500000Y-110652914D01*
X114500000Y-110652914D02*
X114452381Y-110843390D01*
X114452381Y-110843390D02*
X114452381Y-110986247D01*
X114452381Y-110986247D02*
X114500000Y-111176723D01*
X114500000Y-111176723D02*
X114547619Y-111271961D01*
X114547619Y-111271961D02*
X114642857Y-111367200D01*
X114642857Y-111367200D02*
X114785714Y-111414819D01*
X114785714Y-111414819D02*
X114880952Y-111414819D01*
X114880952Y-111414819D02*
X115023809Y-111367200D01*
X115023809Y-111367200D02*
X115071428Y-111319580D01*
X115071428Y-111319580D02*
X115071428Y-110986247D01*
X115071428Y-110986247D02*
X114880952Y-110986247D01*
X115452381Y-111367200D02*
X115595238Y-111414819D01*
X115595238Y-111414819D02*
X115833333Y-111414819D01*
X115833333Y-111414819D02*
X115928571Y-111367200D01*
X115928571Y-111367200D02*
X115976190Y-111319580D01*
X115976190Y-111319580D02*
X116023809Y-111224342D01*
X116023809Y-111224342D02*
X116023809Y-111129104D01*
X116023809Y-111129104D02*
X115976190Y-111033866D01*
X115976190Y-111033866D02*
X115928571Y-110986247D01*
X115928571Y-110986247D02*
X115833333Y-110938628D01*
X115833333Y-110938628D02*
X115642857Y-110891009D01*
X115642857Y-110891009D02*
X115547619Y-110843390D01*
X115547619Y-110843390D02*
X115500000Y-110795771D01*
X115500000Y-110795771D02*
X115452381Y-110700533D01*
X115452381Y-110700533D02*
X115452381Y-110605295D01*
X115452381Y-110605295D02*
X115500000Y-110510057D01*
X115500000Y-110510057D02*
X115547619Y-110462438D01*
X115547619Y-110462438D02*
X115642857Y-110414819D01*
X115642857Y-110414819D02*
X115880952Y-110414819D01*
X115880952Y-110414819D02*
X116023809Y-110462438D01*
X110454819Y-100451904D02*
X111264342Y-100451904D01*
X111264342Y-100451904D02*
X111359580Y-100404285D01*
X111359580Y-100404285D02*
X111407200Y-100356666D01*
X111407200Y-100356666D02*
X111454819Y-100261428D01*
X111454819Y-100261428D02*
X111454819Y-100070952D01*
X111454819Y-100070952D02*
X111407200Y-99975714D01*
X111407200Y-99975714D02*
X111359580Y-99928095D01*
X111359580Y-99928095D02*
X111264342Y-99880476D01*
X111264342Y-99880476D02*
X110454819Y-99880476D01*
X110550057Y-99451904D02*
X110502438Y-99404285D01*
X110502438Y-99404285D02*
X110454819Y-99309047D01*
X110454819Y-99309047D02*
X110454819Y-99070952D01*
X110454819Y-99070952D02*
X110502438Y-98975714D01*
X110502438Y-98975714D02*
X110550057Y-98928095D01*
X110550057Y-98928095D02*
X110645295Y-98880476D01*
X110645295Y-98880476D02*
X110740533Y-98880476D01*
X110740533Y-98880476D02*
X110883390Y-98928095D01*
X110883390Y-98928095D02*
X111454819Y-99499523D01*
X111454819Y-99499523D02*
X111454819Y-98880476D01*
X55671904Y-90359580D02*
X55624285Y-90407200D01*
X55624285Y-90407200D02*
X55481428Y-90454819D01*
X55481428Y-90454819D02*
X55386190Y-90454819D01*
X55386190Y-90454819D02*
X55243333Y-90407200D01*
X55243333Y-90407200D02*
X55148095Y-90311961D01*
X55148095Y-90311961D02*
X55100476Y-90216723D01*
X55100476Y-90216723D02*
X55052857Y-90026247D01*
X55052857Y-90026247D02*
X55052857Y-89883390D01*
X55052857Y-89883390D02*
X55100476Y-89692914D01*
X55100476Y-89692914D02*
X55148095Y-89597676D01*
X55148095Y-89597676D02*
X55243333Y-89502438D01*
X55243333Y-89502438D02*
X55386190Y-89454819D01*
X55386190Y-89454819D02*
X55481428Y-89454819D01*
X55481428Y-89454819D02*
X55624285Y-89502438D01*
X55624285Y-89502438D02*
X55671904Y-89550057D01*
X56243333Y-90454819D02*
X56148095Y-90407200D01*
X56148095Y-90407200D02*
X56100476Y-90359580D01*
X56100476Y-90359580D02*
X56052857Y-90264342D01*
X56052857Y-90264342D02*
X56052857Y-89978628D01*
X56052857Y-89978628D02*
X56100476Y-89883390D01*
X56100476Y-89883390D02*
X56148095Y-89835771D01*
X56148095Y-89835771D02*
X56243333Y-89788152D01*
X56243333Y-89788152D02*
X56386190Y-89788152D01*
X56386190Y-89788152D02*
X56481428Y-89835771D01*
X56481428Y-89835771D02*
X56529047Y-89883390D01*
X56529047Y-89883390D02*
X56576666Y-89978628D01*
X56576666Y-89978628D02*
X56576666Y-90264342D01*
X56576666Y-90264342D02*
X56529047Y-90359580D01*
X56529047Y-90359580D02*
X56481428Y-90407200D01*
X56481428Y-90407200D02*
X56386190Y-90454819D01*
X56386190Y-90454819D02*
X56243333Y-90454819D01*
X57005238Y-89788152D02*
X57005238Y-90454819D01*
X57005238Y-89883390D02*
X57052857Y-89835771D01*
X57052857Y-89835771D02*
X57148095Y-89788152D01*
X57148095Y-89788152D02*
X57290952Y-89788152D01*
X57290952Y-89788152D02*
X57386190Y-89835771D01*
X57386190Y-89835771D02*
X57433809Y-89931009D01*
X57433809Y-89931009D02*
X57433809Y-90454819D01*
X57910000Y-89788152D02*
X57910000Y-90454819D01*
X57910000Y-89883390D02*
X57957619Y-89835771D01*
X57957619Y-89835771D02*
X58052857Y-89788152D01*
X58052857Y-89788152D02*
X58195714Y-89788152D01*
X58195714Y-89788152D02*
X58290952Y-89835771D01*
X58290952Y-89835771D02*
X58338571Y-89931009D01*
X58338571Y-89931009D02*
X58338571Y-90454819D01*
X58576667Y-90550057D02*
X59338571Y-90550057D01*
X59767143Y-89454819D02*
X59862381Y-89454819D01*
X59862381Y-89454819D02*
X59957619Y-89502438D01*
X59957619Y-89502438D02*
X60005238Y-89550057D01*
X60005238Y-89550057D02*
X60052857Y-89645295D01*
X60052857Y-89645295D02*
X60100476Y-89835771D01*
X60100476Y-89835771D02*
X60100476Y-90073866D01*
X60100476Y-90073866D02*
X60052857Y-90264342D01*
X60052857Y-90264342D02*
X60005238Y-90359580D01*
X60005238Y-90359580D02*
X59957619Y-90407200D01*
X59957619Y-90407200D02*
X59862381Y-90454819D01*
X59862381Y-90454819D02*
X59767143Y-90454819D01*
X59767143Y-90454819D02*
X59671905Y-90407200D01*
X59671905Y-90407200D02*
X59624286Y-90359580D01*
X59624286Y-90359580D02*
X59576667Y-90264342D01*
X59576667Y-90264342D02*
X59529048Y-90073866D01*
X59529048Y-90073866D02*
X59529048Y-89835771D01*
X59529048Y-89835771D02*
X59576667Y-89645295D01*
X59576667Y-89645295D02*
X59624286Y-89550057D01*
X59624286Y-89550057D02*
X59671905Y-89502438D01*
X59671905Y-89502438D02*
X59767143Y-89454819D01*
X61052857Y-90454819D02*
X60481429Y-90454819D01*
X60767143Y-90454819D02*
X60767143Y-89454819D01*
X60767143Y-89454819D02*
X60671905Y-89597676D01*
X60671905Y-89597676D02*
X60576667Y-89692914D01*
X60576667Y-89692914D02*
X60481429Y-89740533D01*
X61386191Y-90454819D02*
X61910000Y-89788152D01*
X61386191Y-89788152D02*
X61910000Y-90454819D01*
X62481429Y-89454819D02*
X62576667Y-89454819D01*
X62576667Y-89454819D02*
X62671905Y-89502438D01*
X62671905Y-89502438D02*
X62719524Y-89550057D01*
X62719524Y-89550057D02*
X62767143Y-89645295D01*
X62767143Y-89645295D02*
X62814762Y-89835771D01*
X62814762Y-89835771D02*
X62814762Y-90073866D01*
X62814762Y-90073866D02*
X62767143Y-90264342D01*
X62767143Y-90264342D02*
X62719524Y-90359580D01*
X62719524Y-90359580D02*
X62671905Y-90407200D01*
X62671905Y-90407200D02*
X62576667Y-90454819D01*
X62576667Y-90454819D02*
X62481429Y-90454819D01*
X62481429Y-90454819D02*
X62386191Y-90407200D01*
X62386191Y-90407200D02*
X62338572Y-90359580D01*
X62338572Y-90359580D02*
X62290953Y-90264342D01*
X62290953Y-90264342D02*
X62243334Y-90073866D01*
X62243334Y-90073866D02*
X62243334Y-89835771D01*
X62243334Y-89835771D02*
X62290953Y-89645295D01*
X62290953Y-89645295D02*
X62338572Y-89550057D01*
X62338572Y-89550057D02*
X62386191Y-89502438D01*
X62386191Y-89502438D02*
X62481429Y-89454819D01*
X63719524Y-89454819D02*
X63243334Y-89454819D01*
X63243334Y-89454819D02*
X63195715Y-89931009D01*
X63195715Y-89931009D02*
X63243334Y-89883390D01*
X63243334Y-89883390D02*
X63338572Y-89835771D01*
X63338572Y-89835771D02*
X63576667Y-89835771D01*
X63576667Y-89835771D02*
X63671905Y-89883390D01*
X63671905Y-89883390D02*
X63719524Y-89931009D01*
X63719524Y-89931009D02*
X63767143Y-90026247D01*
X63767143Y-90026247D02*
X63767143Y-90264342D01*
X63767143Y-90264342D02*
X63719524Y-90359580D01*
X63719524Y-90359580D02*
X63671905Y-90407200D01*
X63671905Y-90407200D02*
X63576667Y-90454819D01*
X63576667Y-90454819D02*
X63338572Y-90454819D01*
X63338572Y-90454819D02*
X63243334Y-90407200D01*
X63243334Y-90407200D02*
X63195715Y-90359580D01*
X58864819Y-79491904D02*
X59674342Y-79491904D01*
X59674342Y-79491904D02*
X59769580Y-79444285D01*
X59769580Y-79444285D02*
X59817200Y-79396666D01*
X59817200Y-79396666D02*
X59864819Y-79301428D01*
X59864819Y-79301428D02*
X59864819Y-79110952D01*
X59864819Y-79110952D02*
X59817200Y-79015714D01*
X59817200Y-79015714D02*
X59769580Y-78968095D01*
X59769580Y-78968095D02*
X59674342Y-78920476D01*
X59674342Y-78920476D02*
X58864819Y-78920476D01*
X59864819Y-77920476D02*
X59864819Y-78491904D01*
X59864819Y-78206190D02*
X58864819Y-78206190D01*
X58864819Y-78206190D02*
X59007676Y-78301428D01*
X59007676Y-78301428D02*
X59102914Y-78396666D01*
X59102914Y-78396666D02*
X59150533Y-78491904D01*
X70460475Y-90359580D02*
X70412856Y-90407200D01*
X70412856Y-90407200D02*
X70269999Y-90454819D01*
X70269999Y-90454819D02*
X70174761Y-90454819D01*
X70174761Y-90454819D02*
X70031904Y-90407200D01*
X70031904Y-90407200D02*
X69936666Y-90311961D01*
X69936666Y-90311961D02*
X69889047Y-90216723D01*
X69889047Y-90216723D02*
X69841428Y-90026247D01*
X69841428Y-90026247D02*
X69841428Y-89883390D01*
X69841428Y-89883390D02*
X69889047Y-89692914D01*
X69889047Y-89692914D02*
X69936666Y-89597676D01*
X69936666Y-89597676D02*
X70031904Y-89502438D01*
X70031904Y-89502438D02*
X70174761Y-89454819D01*
X70174761Y-89454819D02*
X70269999Y-89454819D01*
X70269999Y-89454819D02*
X70412856Y-89502438D01*
X70412856Y-89502438D02*
X70460475Y-89550057D01*
X71031904Y-90454819D02*
X70936666Y-90407200D01*
X70936666Y-90407200D02*
X70889047Y-90359580D01*
X70889047Y-90359580D02*
X70841428Y-90264342D01*
X70841428Y-90264342D02*
X70841428Y-89978628D01*
X70841428Y-89978628D02*
X70889047Y-89883390D01*
X70889047Y-89883390D02*
X70936666Y-89835771D01*
X70936666Y-89835771D02*
X71031904Y-89788152D01*
X71031904Y-89788152D02*
X71174761Y-89788152D01*
X71174761Y-89788152D02*
X71269999Y-89835771D01*
X71269999Y-89835771D02*
X71317618Y-89883390D01*
X71317618Y-89883390D02*
X71365237Y-89978628D01*
X71365237Y-89978628D02*
X71365237Y-90264342D01*
X71365237Y-90264342D02*
X71317618Y-90359580D01*
X71317618Y-90359580D02*
X71269999Y-90407200D01*
X71269999Y-90407200D02*
X71174761Y-90454819D01*
X71174761Y-90454819D02*
X71031904Y-90454819D01*
X71793809Y-89788152D02*
X71793809Y-90454819D01*
X71793809Y-89883390D02*
X71841428Y-89835771D01*
X71841428Y-89835771D02*
X71936666Y-89788152D01*
X71936666Y-89788152D02*
X72079523Y-89788152D01*
X72079523Y-89788152D02*
X72174761Y-89835771D01*
X72174761Y-89835771D02*
X72222380Y-89931009D01*
X72222380Y-89931009D02*
X72222380Y-90454819D01*
X72698571Y-89788152D02*
X72698571Y-90454819D01*
X72698571Y-89883390D02*
X72746190Y-89835771D01*
X72746190Y-89835771D02*
X72841428Y-89788152D01*
X72841428Y-89788152D02*
X72984285Y-89788152D01*
X72984285Y-89788152D02*
X73079523Y-89835771D01*
X73079523Y-89835771D02*
X73127142Y-89931009D01*
X73127142Y-89931009D02*
X73127142Y-90454819D01*
X73365238Y-90550057D02*
X74127142Y-90550057D01*
X74555714Y-89454819D02*
X74650952Y-89454819D01*
X74650952Y-89454819D02*
X74746190Y-89502438D01*
X74746190Y-89502438D02*
X74793809Y-89550057D01*
X74793809Y-89550057D02*
X74841428Y-89645295D01*
X74841428Y-89645295D02*
X74889047Y-89835771D01*
X74889047Y-89835771D02*
X74889047Y-90073866D01*
X74889047Y-90073866D02*
X74841428Y-90264342D01*
X74841428Y-90264342D02*
X74793809Y-90359580D01*
X74793809Y-90359580D02*
X74746190Y-90407200D01*
X74746190Y-90407200D02*
X74650952Y-90454819D01*
X74650952Y-90454819D02*
X74555714Y-90454819D01*
X74555714Y-90454819D02*
X74460476Y-90407200D01*
X74460476Y-90407200D02*
X74412857Y-90359580D01*
X74412857Y-90359580D02*
X74365238Y-90264342D01*
X74365238Y-90264342D02*
X74317619Y-90073866D01*
X74317619Y-90073866D02*
X74317619Y-89835771D01*
X74317619Y-89835771D02*
X74365238Y-89645295D01*
X74365238Y-89645295D02*
X74412857Y-89550057D01*
X74412857Y-89550057D02*
X74460476Y-89502438D01*
X74460476Y-89502438D02*
X74555714Y-89454819D01*
X75841428Y-90454819D02*
X75270000Y-90454819D01*
X75555714Y-90454819D02*
X75555714Y-89454819D01*
X75555714Y-89454819D02*
X75460476Y-89597676D01*
X75460476Y-89597676D02*
X75365238Y-89692914D01*
X75365238Y-89692914D02*
X75270000Y-89740533D01*
X76174762Y-90454819D02*
X76698571Y-89788152D01*
X76174762Y-89788152D02*
X76698571Y-90454819D01*
X77270000Y-89454819D02*
X77365238Y-89454819D01*
X77365238Y-89454819D02*
X77460476Y-89502438D01*
X77460476Y-89502438D02*
X77508095Y-89550057D01*
X77508095Y-89550057D02*
X77555714Y-89645295D01*
X77555714Y-89645295D02*
X77603333Y-89835771D01*
X77603333Y-89835771D02*
X77603333Y-90073866D01*
X77603333Y-90073866D02*
X77555714Y-90264342D01*
X77555714Y-90264342D02*
X77508095Y-90359580D01*
X77508095Y-90359580D02*
X77460476Y-90407200D01*
X77460476Y-90407200D02*
X77365238Y-90454819D01*
X77365238Y-90454819D02*
X77270000Y-90454819D01*
X77270000Y-90454819D02*
X77174762Y-90407200D01*
X77174762Y-90407200D02*
X77127143Y-90359580D01*
X77127143Y-90359580D02*
X77079524Y-90264342D01*
X77079524Y-90264342D02*
X77031905Y-90073866D01*
X77031905Y-90073866D02*
X77031905Y-89835771D01*
X77031905Y-89835771D02*
X77079524Y-89645295D01*
X77079524Y-89645295D02*
X77127143Y-89550057D01*
X77127143Y-89550057D02*
X77174762Y-89502438D01*
X77174762Y-89502438D02*
X77270000Y-89454819D01*
X78174762Y-89883390D02*
X78079524Y-89835771D01*
X78079524Y-89835771D02*
X78031905Y-89788152D01*
X78031905Y-89788152D02*
X77984286Y-89692914D01*
X77984286Y-89692914D02*
X77984286Y-89645295D01*
X77984286Y-89645295D02*
X78031905Y-89550057D01*
X78031905Y-89550057D02*
X78079524Y-89502438D01*
X78079524Y-89502438D02*
X78174762Y-89454819D01*
X78174762Y-89454819D02*
X78365238Y-89454819D01*
X78365238Y-89454819D02*
X78460476Y-89502438D01*
X78460476Y-89502438D02*
X78508095Y-89550057D01*
X78508095Y-89550057D02*
X78555714Y-89645295D01*
X78555714Y-89645295D02*
X78555714Y-89692914D01*
X78555714Y-89692914D02*
X78508095Y-89788152D01*
X78508095Y-89788152D02*
X78460476Y-89835771D01*
X78460476Y-89835771D02*
X78365238Y-89883390D01*
X78365238Y-89883390D02*
X78174762Y-89883390D01*
X78174762Y-89883390D02*
X78079524Y-89931009D01*
X78079524Y-89931009D02*
X78031905Y-89978628D01*
X78031905Y-89978628D02*
X77984286Y-90073866D01*
X77984286Y-90073866D02*
X77984286Y-90264342D01*
X77984286Y-90264342D02*
X78031905Y-90359580D01*
X78031905Y-90359580D02*
X78079524Y-90407200D01*
X78079524Y-90407200D02*
X78174762Y-90454819D01*
X78174762Y-90454819D02*
X78365238Y-90454819D01*
X78365238Y-90454819D02*
X78460476Y-90407200D01*
X78460476Y-90407200D02*
X78508095Y-90359580D01*
X78508095Y-90359580D02*
X78555714Y-90264342D01*
X78555714Y-90264342D02*
X78555714Y-90073866D01*
X78555714Y-90073866D02*
X78508095Y-89978628D01*
X78508095Y-89978628D02*
X78460476Y-89931009D01*
X78460476Y-89931009D02*
X78365238Y-89883390D01*
X78746191Y-90550057D02*
X79508095Y-90550057D01*
X79698572Y-90407200D02*
X79841429Y-90454819D01*
X79841429Y-90454819D02*
X80079524Y-90454819D01*
X80079524Y-90454819D02*
X80174762Y-90407200D01*
X80174762Y-90407200D02*
X80222381Y-90359580D01*
X80222381Y-90359580D02*
X80270000Y-90264342D01*
X80270000Y-90264342D02*
X80270000Y-90169104D01*
X80270000Y-90169104D02*
X80222381Y-90073866D01*
X80222381Y-90073866D02*
X80174762Y-90026247D01*
X80174762Y-90026247D02*
X80079524Y-89978628D01*
X80079524Y-89978628D02*
X79889048Y-89931009D01*
X79889048Y-89931009D02*
X79793810Y-89883390D01*
X79793810Y-89883390D02*
X79746191Y-89835771D01*
X79746191Y-89835771D02*
X79698572Y-89740533D01*
X79698572Y-89740533D02*
X79698572Y-89645295D01*
X79698572Y-89645295D02*
X79746191Y-89550057D01*
X79746191Y-89550057D02*
X79793810Y-89502438D01*
X79793810Y-89502438D02*
X79889048Y-89454819D01*
X79889048Y-89454819D02*
X80127143Y-89454819D01*
X80127143Y-89454819D02*
X80270000Y-89502438D01*
X80698572Y-90454819D02*
X80698572Y-89454819D01*
X81127143Y-90454819D02*
X81127143Y-89931009D01*
X81127143Y-89931009D02*
X81079524Y-89835771D01*
X81079524Y-89835771D02*
X80984286Y-89788152D01*
X80984286Y-89788152D02*
X80841429Y-89788152D01*
X80841429Y-89788152D02*
X80746191Y-89835771D01*
X80746191Y-89835771D02*
X80698572Y-89883390D01*
X81603334Y-90454819D02*
X81603334Y-89788152D01*
X81603334Y-89454819D02*
X81555715Y-89502438D01*
X81555715Y-89502438D02*
X81603334Y-89550057D01*
X81603334Y-89550057D02*
X81650953Y-89502438D01*
X81650953Y-89502438D02*
X81603334Y-89454819D01*
X81603334Y-89454819D02*
X81603334Y-89550057D01*
X82460476Y-90407200D02*
X82365238Y-90454819D01*
X82365238Y-90454819D02*
X82174762Y-90454819D01*
X82174762Y-90454819D02*
X82079524Y-90407200D01*
X82079524Y-90407200D02*
X82031905Y-90311961D01*
X82031905Y-90311961D02*
X82031905Y-89931009D01*
X82031905Y-89931009D02*
X82079524Y-89835771D01*
X82079524Y-89835771D02*
X82174762Y-89788152D01*
X82174762Y-89788152D02*
X82365238Y-89788152D01*
X82365238Y-89788152D02*
X82460476Y-89835771D01*
X82460476Y-89835771D02*
X82508095Y-89931009D01*
X82508095Y-89931009D02*
X82508095Y-90026247D01*
X82508095Y-90026247D02*
X82031905Y-90121485D01*
X83079524Y-90454819D02*
X82984286Y-90407200D01*
X82984286Y-90407200D02*
X82936667Y-90311961D01*
X82936667Y-90311961D02*
X82936667Y-89454819D01*
X83889048Y-90454819D02*
X83889048Y-89454819D01*
X83889048Y-90407200D02*
X83793810Y-90454819D01*
X83793810Y-90454819D02*
X83603334Y-90454819D01*
X83603334Y-90454819D02*
X83508096Y-90407200D01*
X83508096Y-90407200D02*
X83460477Y-90359580D01*
X83460477Y-90359580D02*
X83412858Y-90264342D01*
X83412858Y-90264342D02*
X83412858Y-89978628D01*
X83412858Y-89978628D02*
X83460477Y-89883390D01*
X83460477Y-89883390D02*
X83508096Y-89835771D01*
X83508096Y-89835771D02*
X83603334Y-89788152D01*
X83603334Y-89788152D02*
X83793810Y-89788152D01*
X83793810Y-89788152D02*
X83889048Y-89835771D01*
X84746191Y-90407200D02*
X84650953Y-90454819D01*
X84650953Y-90454819D02*
X84460477Y-90454819D01*
X84460477Y-90454819D02*
X84365239Y-90407200D01*
X84365239Y-90407200D02*
X84317620Y-90311961D01*
X84317620Y-90311961D02*
X84317620Y-89931009D01*
X84317620Y-89931009D02*
X84365239Y-89835771D01*
X84365239Y-89835771D02*
X84460477Y-89788152D01*
X84460477Y-89788152D02*
X84650953Y-89788152D01*
X84650953Y-89788152D02*
X84746191Y-89835771D01*
X84746191Y-89835771D02*
X84793810Y-89931009D01*
X84793810Y-89931009D02*
X84793810Y-90026247D01*
X84793810Y-90026247D02*
X84317620Y-90121485D01*
X85650953Y-90454819D02*
X85650953Y-89454819D01*
X85650953Y-90407200D02*
X85555715Y-90454819D01*
X85555715Y-90454819D02*
X85365239Y-90454819D01*
X85365239Y-90454819D02*
X85270001Y-90407200D01*
X85270001Y-90407200D02*
X85222382Y-90359580D01*
X85222382Y-90359580D02*
X85174763Y-90264342D01*
X85174763Y-90264342D02*
X85174763Y-89978628D01*
X85174763Y-89978628D02*
X85222382Y-89883390D01*
X85222382Y-89883390D02*
X85270001Y-89835771D01*
X85270001Y-89835771D02*
X85365239Y-89788152D01*
X85365239Y-89788152D02*
X85555715Y-89788152D01*
X85555715Y-89788152D02*
X85650953Y-89835771D01*
X77224819Y-79491904D02*
X78034342Y-79491904D01*
X78034342Y-79491904D02*
X78129580Y-79444285D01*
X78129580Y-79444285D02*
X78177200Y-79396666D01*
X78177200Y-79396666D02*
X78224819Y-79301428D01*
X78224819Y-79301428D02*
X78224819Y-79110952D01*
X78224819Y-79110952D02*
X78177200Y-79015714D01*
X78177200Y-79015714D02*
X78129580Y-78968095D01*
X78129580Y-78968095D02*
X78034342Y-78920476D01*
X78034342Y-78920476D02*
X77224819Y-78920476D01*
X77224819Y-78539523D02*
X77224819Y-77872857D01*
X77224819Y-77872857D02*
X78224819Y-78301428D01*
X61952381Y-90454819D02*
X61952381Y-89454819D01*
X61952381Y-89454819D02*
X62333333Y-89454819D01*
X62333333Y-89454819D02*
X62428571Y-89502438D01*
X62428571Y-89502438D02*
X62476190Y-89550057D01*
X62476190Y-89550057D02*
X62523809Y-89645295D01*
X62523809Y-89645295D02*
X62523809Y-89788152D01*
X62523809Y-89788152D02*
X62476190Y-89883390D01*
X62476190Y-89883390D02*
X62428571Y-89931009D01*
X62428571Y-89931009D02*
X62333333Y-89978628D01*
X62333333Y-89978628D02*
X61952381Y-89978628D01*
X62904762Y-90169104D02*
X63380952Y-90169104D01*
X62809524Y-90454819D02*
X63142857Y-89454819D01*
X63142857Y-89454819D02*
X63476190Y-90454819D01*
X64285714Y-90454819D02*
X63809524Y-90454819D01*
X63809524Y-90454819D02*
X63809524Y-89454819D01*
X64571429Y-89550057D02*
X64619048Y-89502438D01*
X64619048Y-89502438D02*
X64714286Y-89454819D01*
X64714286Y-89454819D02*
X64952381Y-89454819D01*
X64952381Y-89454819D02*
X65047619Y-89502438D01*
X65047619Y-89502438D02*
X65095238Y-89550057D01*
X65095238Y-89550057D02*
X65142857Y-89645295D01*
X65142857Y-89645295D02*
X65142857Y-89740533D01*
X65142857Y-89740533D02*
X65095238Y-89883390D01*
X65095238Y-89883390D02*
X64523810Y-90454819D01*
X64523810Y-90454819D02*
X65142857Y-90454819D01*
X66000000Y-89788152D02*
X66000000Y-90454819D01*
X65761905Y-89407200D02*
X65523810Y-90121485D01*
X65523810Y-90121485D02*
X66142857Y-90121485D01*
X63454819Y-79491904D02*
X64264342Y-79491904D01*
X64264342Y-79491904D02*
X64359580Y-79444285D01*
X64359580Y-79444285D02*
X64407200Y-79396666D01*
X64407200Y-79396666D02*
X64454819Y-79301428D01*
X64454819Y-79301428D02*
X64454819Y-79110952D01*
X64454819Y-79110952D02*
X64407200Y-79015714D01*
X64407200Y-79015714D02*
X64359580Y-78968095D01*
X64359580Y-78968095D02*
X64264342Y-78920476D01*
X64264342Y-78920476D02*
X63454819Y-78920476D01*
X63454819Y-78539523D02*
X63454819Y-77920476D01*
X63454819Y-77920476D02*
X63835771Y-78253809D01*
X63835771Y-78253809D02*
X63835771Y-78110952D01*
X63835771Y-78110952D02*
X63883390Y-78015714D01*
X63883390Y-78015714D02*
X63931009Y-77968095D01*
X63931009Y-77968095D02*
X64026247Y-77920476D01*
X64026247Y-77920476D02*
X64264342Y-77920476D01*
X64264342Y-77920476D02*
X64359580Y-77968095D01*
X64359580Y-77968095D02*
X64407200Y-78015714D01*
X64407200Y-78015714D02*
X64454819Y-78110952D01*
X64454819Y-78110952D02*
X64454819Y-78396666D01*
X64454819Y-78396666D02*
X64407200Y-78491904D01*
X64407200Y-78491904D02*
X64359580Y-78539523D01*
X61965712Y-90359580D02*
X61918093Y-90407200D01*
X61918093Y-90407200D02*
X61775236Y-90454819D01*
X61775236Y-90454819D02*
X61679998Y-90454819D01*
X61679998Y-90454819D02*
X61537141Y-90407200D01*
X61537141Y-90407200D02*
X61441903Y-90311961D01*
X61441903Y-90311961D02*
X61394284Y-90216723D01*
X61394284Y-90216723D02*
X61346665Y-90026247D01*
X61346665Y-90026247D02*
X61346665Y-89883390D01*
X61346665Y-89883390D02*
X61394284Y-89692914D01*
X61394284Y-89692914D02*
X61441903Y-89597676D01*
X61441903Y-89597676D02*
X61537141Y-89502438D01*
X61537141Y-89502438D02*
X61679998Y-89454819D01*
X61679998Y-89454819D02*
X61775236Y-89454819D01*
X61775236Y-89454819D02*
X61918093Y-89502438D01*
X61918093Y-89502438D02*
X61965712Y-89550057D01*
X62537141Y-90454819D02*
X62441903Y-90407200D01*
X62441903Y-90407200D02*
X62394284Y-90359580D01*
X62394284Y-90359580D02*
X62346665Y-90264342D01*
X62346665Y-90264342D02*
X62346665Y-89978628D01*
X62346665Y-89978628D02*
X62394284Y-89883390D01*
X62394284Y-89883390D02*
X62441903Y-89835771D01*
X62441903Y-89835771D02*
X62537141Y-89788152D01*
X62537141Y-89788152D02*
X62679998Y-89788152D01*
X62679998Y-89788152D02*
X62775236Y-89835771D01*
X62775236Y-89835771D02*
X62822855Y-89883390D01*
X62822855Y-89883390D02*
X62870474Y-89978628D01*
X62870474Y-89978628D02*
X62870474Y-90264342D01*
X62870474Y-90264342D02*
X62822855Y-90359580D01*
X62822855Y-90359580D02*
X62775236Y-90407200D01*
X62775236Y-90407200D02*
X62679998Y-90454819D01*
X62679998Y-90454819D02*
X62537141Y-90454819D01*
X63299046Y-89788152D02*
X63299046Y-90454819D01*
X63299046Y-89883390D02*
X63346665Y-89835771D01*
X63346665Y-89835771D02*
X63441903Y-89788152D01*
X63441903Y-89788152D02*
X63584760Y-89788152D01*
X63584760Y-89788152D02*
X63679998Y-89835771D01*
X63679998Y-89835771D02*
X63727617Y-89931009D01*
X63727617Y-89931009D02*
X63727617Y-90454819D01*
X64203808Y-89788152D02*
X64203808Y-90454819D01*
X64203808Y-89883390D02*
X64251427Y-89835771D01*
X64251427Y-89835771D02*
X64346665Y-89788152D01*
X64346665Y-89788152D02*
X64489522Y-89788152D01*
X64489522Y-89788152D02*
X64584760Y-89835771D01*
X64584760Y-89835771D02*
X64632379Y-89931009D01*
X64632379Y-89931009D02*
X64632379Y-90454819D01*
X64870475Y-90550057D02*
X65632379Y-90550057D01*
X66060951Y-89454819D02*
X66156189Y-89454819D01*
X66156189Y-89454819D02*
X66251427Y-89502438D01*
X66251427Y-89502438D02*
X66299046Y-89550057D01*
X66299046Y-89550057D02*
X66346665Y-89645295D01*
X66346665Y-89645295D02*
X66394284Y-89835771D01*
X66394284Y-89835771D02*
X66394284Y-90073866D01*
X66394284Y-90073866D02*
X66346665Y-90264342D01*
X66346665Y-90264342D02*
X66299046Y-90359580D01*
X66299046Y-90359580D02*
X66251427Y-90407200D01*
X66251427Y-90407200D02*
X66156189Y-90454819D01*
X66156189Y-90454819D02*
X66060951Y-90454819D01*
X66060951Y-90454819D02*
X65965713Y-90407200D01*
X65965713Y-90407200D02*
X65918094Y-90359580D01*
X65918094Y-90359580D02*
X65870475Y-90264342D01*
X65870475Y-90264342D02*
X65822856Y-90073866D01*
X65822856Y-90073866D02*
X65822856Y-89835771D01*
X65822856Y-89835771D02*
X65870475Y-89645295D01*
X65870475Y-89645295D02*
X65918094Y-89550057D01*
X65918094Y-89550057D02*
X65965713Y-89502438D01*
X65965713Y-89502438D02*
X66060951Y-89454819D01*
X66775237Y-89550057D02*
X66822856Y-89502438D01*
X66822856Y-89502438D02*
X66918094Y-89454819D01*
X66918094Y-89454819D02*
X67156189Y-89454819D01*
X67156189Y-89454819D02*
X67251427Y-89502438D01*
X67251427Y-89502438D02*
X67299046Y-89550057D01*
X67299046Y-89550057D02*
X67346665Y-89645295D01*
X67346665Y-89645295D02*
X67346665Y-89740533D01*
X67346665Y-89740533D02*
X67299046Y-89883390D01*
X67299046Y-89883390D02*
X66727618Y-90454819D01*
X66727618Y-90454819D02*
X67346665Y-90454819D01*
X67679999Y-90454819D02*
X68203808Y-89788152D01*
X67679999Y-89788152D02*
X68203808Y-90454819D01*
X68775237Y-89454819D02*
X68870475Y-89454819D01*
X68870475Y-89454819D02*
X68965713Y-89502438D01*
X68965713Y-89502438D02*
X69013332Y-89550057D01*
X69013332Y-89550057D02*
X69060951Y-89645295D01*
X69060951Y-89645295D02*
X69108570Y-89835771D01*
X69108570Y-89835771D02*
X69108570Y-90073866D01*
X69108570Y-90073866D02*
X69060951Y-90264342D01*
X69060951Y-90264342D02*
X69013332Y-90359580D01*
X69013332Y-90359580D02*
X68965713Y-90407200D01*
X68965713Y-90407200D02*
X68870475Y-90454819D01*
X68870475Y-90454819D02*
X68775237Y-90454819D01*
X68775237Y-90454819D02*
X68679999Y-90407200D01*
X68679999Y-90407200D02*
X68632380Y-90359580D01*
X68632380Y-90359580D02*
X68584761Y-90264342D01*
X68584761Y-90264342D02*
X68537142Y-90073866D01*
X68537142Y-90073866D02*
X68537142Y-89835771D01*
X68537142Y-89835771D02*
X68584761Y-89645295D01*
X68584761Y-89645295D02*
X68632380Y-89550057D01*
X68632380Y-89550057D02*
X68679999Y-89502438D01*
X68679999Y-89502438D02*
X68775237Y-89454819D01*
X69965713Y-89788152D02*
X69965713Y-90454819D01*
X69727618Y-89407200D02*
X69489523Y-90121485D01*
X69489523Y-90121485D02*
X70108570Y-90121485D01*
X70251428Y-90550057D02*
X71013332Y-90550057D01*
X71441904Y-89454819D02*
X71632380Y-89454819D01*
X71632380Y-89454819D02*
X71727618Y-89502438D01*
X71727618Y-89502438D02*
X71822856Y-89597676D01*
X71822856Y-89597676D02*
X71870475Y-89788152D01*
X71870475Y-89788152D02*
X71870475Y-90121485D01*
X71870475Y-90121485D02*
X71822856Y-90311961D01*
X71822856Y-90311961D02*
X71727618Y-90407200D01*
X71727618Y-90407200D02*
X71632380Y-90454819D01*
X71632380Y-90454819D02*
X71441904Y-90454819D01*
X71441904Y-90454819D02*
X71346666Y-90407200D01*
X71346666Y-90407200D02*
X71251428Y-90311961D01*
X71251428Y-90311961D02*
X71203809Y-90121485D01*
X71203809Y-90121485D02*
X71203809Y-89788152D01*
X71203809Y-89788152D02*
X71251428Y-89597676D01*
X71251428Y-89597676D02*
X71346666Y-89502438D01*
X71346666Y-89502438D02*
X71441904Y-89454819D01*
X72727618Y-90454819D02*
X72727618Y-89454819D01*
X72727618Y-90407200D02*
X72632380Y-90454819D01*
X72632380Y-90454819D02*
X72441904Y-90454819D01*
X72441904Y-90454819D02*
X72346666Y-90407200D01*
X72346666Y-90407200D02*
X72299047Y-90359580D01*
X72299047Y-90359580D02*
X72251428Y-90264342D01*
X72251428Y-90264342D02*
X72251428Y-89978628D01*
X72251428Y-89978628D02*
X72299047Y-89883390D01*
X72299047Y-89883390D02*
X72346666Y-89835771D01*
X72346666Y-89835771D02*
X72441904Y-89788152D01*
X72441904Y-89788152D02*
X72632380Y-89788152D01*
X72632380Y-89788152D02*
X72727618Y-89835771D01*
X73632380Y-90454819D02*
X73632380Y-89454819D01*
X73632380Y-90407200D02*
X73537142Y-90454819D01*
X73537142Y-90454819D02*
X73346666Y-90454819D01*
X73346666Y-90454819D02*
X73251428Y-90407200D01*
X73251428Y-90407200D02*
X73203809Y-90359580D01*
X73203809Y-90359580D02*
X73156190Y-90264342D01*
X73156190Y-90264342D02*
X73156190Y-89978628D01*
X73156190Y-89978628D02*
X73203809Y-89883390D01*
X73203809Y-89883390D02*
X73251428Y-89835771D01*
X73251428Y-89835771D02*
X73346666Y-89788152D01*
X73346666Y-89788152D02*
X73537142Y-89788152D01*
X73537142Y-89788152D02*
X73632380Y-89835771D01*
X73870476Y-90550057D02*
X74632380Y-90550057D01*
X74870476Y-89931009D02*
X75203809Y-89931009D01*
X75346666Y-90454819D02*
X74870476Y-90454819D01*
X74870476Y-90454819D02*
X74870476Y-89454819D01*
X74870476Y-89454819D02*
X75346666Y-89454819D01*
X75680000Y-89788152D02*
X75918095Y-90454819D01*
X75918095Y-90454819D02*
X76156190Y-89788152D01*
X76918095Y-90407200D02*
X76822857Y-90454819D01*
X76822857Y-90454819D02*
X76632381Y-90454819D01*
X76632381Y-90454819D02*
X76537143Y-90407200D01*
X76537143Y-90407200D02*
X76489524Y-90311961D01*
X76489524Y-90311961D02*
X76489524Y-89931009D01*
X76489524Y-89931009D02*
X76537143Y-89835771D01*
X76537143Y-89835771D02*
X76632381Y-89788152D01*
X76632381Y-89788152D02*
X76822857Y-89788152D01*
X76822857Y-89788152D02*
X76918095Y-89835771D01*
X76918095Y-89835771D02*
X76965714Y-89931009D01*
X76965714Y-89931009D02*
X76965714Y-90026247D01*
X76965714Y-90026247D02*
X76489524Y-90121485D01*
X77394286Y-89788152D02*
X77394286Y-90454819D01*
X77394286Y-89883390D02*
X77441905Y-89835771D01*
X77441905Y-89835771D02*
X77537143Y-89788152D01*
X77537143Y-89788152D02*
X77680000Y-89788152D01*
X77680000Y-89788152D02*
X77775238Y-89835771D01*
X77775238Y-89835771D02*
X77822857Y-89931009D01*
X77822857Y-89931009D02*
X77822857Y-90454819D01*
X78060953Y-90550057D02*
X78822857Y-90550057D01*
X79013334Y-90407200D02*
X79156191Y-90454819D01*
X79156191Y-90454819D02*
X79394286Y-90454819D01*
X79394286Y-90454819D02*
X79489524Y-90407200D01*
X79489524Y-90407200D02*
X79537143Y-90359580D01*
X79537143Y-90359580D02*
X79584762Y-90264342D01*
X79584762Y-90264342D02*
X79584762Y-90169104D01*
X79584762Y-90169104D02*
X79537143Y-90073866D01*
X79537143Y-90073866D02*
X79489524Y-90026247D01*
X79489524Y-90026247D02*
X79394286Y-89978628D01*
X79394286Y-89978628D02*
X79203810Y-89931009D01*
X79203810Y-89931009D02*
X79108572Y-89883390D01*
X79108572Y-89883390D02*
X79060953Y-89835771D01*
X79060953Y-89835771D02*
X79013334Y-89740533D01*
X79013334Y-89740533D02*
X79013334Y-89645295D01*
X79013334Y-89645295D02*
X79060953Y-89550057D01*
X79060953Y-89550057D02*
X79108572Y-89502438D01*
X79108572Y-89502438D02*
X79203810Y-89454819D01*
X79203810Y-89454819D02*
X79441905Y-89454819D01*
X79441905Y-89454819D02*
X79584762Y-89502438D01*
X80013334Y-90454819D02*
X80013334Y-89454819D01*
X80441905Y-90454819D02*
X80441905Y-89931009D01*
X80441905Y-89931009D02*
X80394286Y-89835771D01*
X80394286Y-89835771D02*
X80299048Y-89788152D01*
X80299048Y-89788152D02*
X80156191Y-89788152D01*
X80156191Y-89788152D02*
X80060953Y-89835771D01*
X80060953Y-89835771D02*
X80013334Y-89883390D01*
X80918096Y-90454819D02*
X80918096Y-89788152D01*
X80918096Y-89454819D02*
X80870477Y-89502438D01*
X80870477Y-89502438D02*
X80918096Y-89550057D01*
X80918096Y-89550057D02*
X80965715Y-89502438D01*
X80965715Y-89502438D02*
X80918096Y-89454819D01*
X80918096Y-89454819D02*
X80918096Y-89550057D01*
X81775238Y-90407200D02*
X81680000Y-90454819D01*
X81680000Y-90454819D02*
X81489524Y-90454819D01*
X81489524Y-90454819D02*
X81394286Y-90407200D01*
X81394286Y-90407200D02*
X81346667Y-90311961D01*
X81346667Y-90311961D02*
X81346667Y-89931009D01*
X81346667Y-89931009D02*
X81394286Y-89835771D01*
X81394286Y-89835771D02*
X81489524Y-89788152D01*
X81489524Y-89788152D02*
X81680000Y-89788152D01*
X81680000Y-89788152D02*
X81775238Y-89835771D01*
X81775238Y-89835771D02*
X81822857Y-89931009D01*
X81822857Y-89931009D02*
X81822857Y-90026247D01*
X81822857Y-90026247D02*
X81346667Y-90121485D01*
X82394286Y-90454819D02*
X82299048Y-90407200D01*
X82299048Y-90407200D02*
X82251429Y-90311961D01*
X82251429Y-90311961D02*
X82251429Y-89454819D01*
X83203810Y-90454819D02*
X83203810Y-89454819D01*
X83203810Y-90407200D02*
X83108572Y-90454819D01*
X83108572Y-90454819D02*
X82918096Y-90454819D01*
X82918096Y-90454819D02*
X82822858Y-90407200D01*
X82822858Y-90407200D02*
X82775239Y-90359580D01*
X82775239Y-90359580D02*
X82727620Y-90264342D01*
X82727620Y-90264342D02*
X82727620Y-89978628D01*
X82727620Y-89978628D02*
X82775239Y-89883390D01*
X82775239Y-89883390D02*
X82822858Y-89835771D01*
X82822858Y-89835771D02*
X82918096Y-89788152D01*
X82918096Y-89788152D02*
X83108572Y-89788152D01*
X83108572Y-89788152D02*
X83203810Y-89835771D01*
X84060953Y-90407200D02*
X83965715Y-90454819D01*
X83965715Y-90454819D02*
X83775239Y-90454819D01*
X83775239Y-90454819D02*
X83680001Y-90407200D01*
X83680001Y-90407200D02*
X83632382Y-90311961D01*
X83632382Y-90311961D02*
X83632382Y-89931009D01*
X83632382Y-89931009D02*
X83680001Y-89835771D01*
X83680001Y-89835771D02*
X83775239Y-89788152D01*
X83775239Y-89788152D02*
X83965715Y-89788152D01*
X83965715Y-89788152D02*
X84060953Y-89835771D01*
X84060953Y-89835771D02*
X84108572Y-89931009D01*
X84108572Y-89931009D02*
X84108572Y-90026247D01*
X84108572Y-90026247D02*
X83632382Y-90121485D01*
X84965715Y-90454819D02*
X84965715Y-89454819D01*
X84965715Y-90407200D02*
X84870477Y-90454819D01*
X84870477Y-90454819D02*
X84680001Y-90454819D01*
X84680001Y-90454819D02*
X84584763Y-90407200D01*
X84584763Y-90407200D02*
X84537144Y-90359580D01*
X84537144Y-90359580D02*
X84489525Y-90264342D01*
X84489525Y-90264342D02*
X84489525Y-89978628D01*
X84489525Y-89978628D02*
X84537144Y-89883390D01*
X84537144Y-89883390D02*
X84584763Y-89835771D01*
X84584763Y-89835771D02*
X84680001Y-89788152D01*
X84680001Y-89788152D02*
X84870477Y-89788152D01*
X84870477Y-89788152D02*
X84965715Y-89835771D01*
X72634819Y-79491904D02*
X73444342Y-79491904D01*
X73444342Y-79491904D02*
X73539580Y-79444285D01*
X73539580Y-79444285D02*
X73587200Y-79396666D01*
X73587200Y-79396666D02*
X73634819Y-79301428D01*
X73634819Y-79301428D02*
X73634819Y-79110952D01*
X73634819Y-79110952D02*
X73587200Y-79015714D01*
X73587200Y-79015714D02*
X73539580Y-78968095D01*
X73539580Y-78968095D02*
X73444342Y-78920476D01*
X73444342Y-78920476D02*
X72634819Y-78920476D01*
X72634819Y-78015714D02*
X72634819Y-78206190D01*
X72634819Y-78206190D02*
X72682438Y-78301428D01*
X72682438Y-78301428D02*
X72730057Y-78349047D01*
X72730057Y-78349047D02*
X72872914Y-78444285D01*
X72872914Y-78444285D02*
X73063390Y-78491904D01*
X73063390Y-78491904D02*
X73444342Y-78491904D01*
X73444342Y-78491904D02*
X73539580Y-78444285D01*
X73539580Y-78444285D02*
X73587200Y-78396666D01*
X73587200Y-78396666D02*
X73634819Y-78301428D01*
X73634819Y-78301428D02*
X73634819Y-78110952D01*
X73634819Y-78110952D02*
X73587200Y-78015714D01*
X73587200Y-78015714D02*
X73539580Y-77968095D01*
X73539580Y-77968095D02*
X73444342Y-77920476D01*
X73444342Y-77920476D02*
X73206247Y-77920476D01*
X73206247Y-77920476D02*
X73111009Y-77968095D01*
X73111009Y-77968095D02*
X73063390Y-78015714D01*
X73063390Y-78015714D02*
X73015771Y-78110952D01*
X73015771Y-78110952D02*
X73015771Y-78301428D01*
X73015771Y-78301428D02*
X73063390Y-78396666D01*
X73063390Y-78396666D02*
X73111009Y-78444285D01*
X73111009Y-78444285D02*
X73206247Y-78491904D01*
X42587141Y-90359580D02*
X42539522Y-90407200D01*
X42539522Y-90407200D02*
X42396665Y-90454819D01*
X42396665Y-90454819D02*
X42301427Y-90454819D01*
X42301427Y-90454819D02*
X42158570Y-90407200D01*
X42158570Y-90407200D02*
X42063332Y-90311961D01*
X42063332Y-90311961D02*
X42015713Y-90216723D01*
X42015713Y-90216723D02*
X41968094Y-90026247D01*
X41968094Y-90026247D02*
X41968094Y-89883390D01*
X41968094Y-89883390D02*
X42015713Y-89692914D01*
X42015713Y-89692914D02*
X42063332Y-89597676D01*
X42063332Y-89597676D02*
X42158570Y-89502438D01*
X42158570Y-89502438D02*
X42301427Y-89454819D01*
X42301427Y-89454819D02*
X42396665Y-89454819D01*
X42396665Y-89454819D02*
X42539522Y-89502438D01*
X42539522Y-89502438D02*
X42587141Y-89550057D01*
X43158570Y-90454819D02*
X43063332Y-90407200D01*
X43063332Y-90407200D02*
X43015713Y-90359580D01*
X43015713Y-90359580D02*
X42968094Y-90264342D01*
X42968094Y-90264342D02*
X42968094Y-89978628D01*
X42968094Y-89978628D02*
X43015713Y-89883390D01*
X43015713Y-89883390D02*
X43063332Y-89835771D01*
X43063332Y-89835771D02*
X43158570Y-89788152D01*
X43158570Y-89788152D02*
X43301427Y-89788152D01*
X43301427Y-89788152D02*
X43396665Y-89835771D01*
X43396665Y-89835771D02*
X43444284Y-89883390D01*
X43444284Y-89883390D02*
X43491903Y-89978628D01*
X43491903Y-89978628D02*
X43491903Y-90264342D01*
X43491903Y-90264342D02*
X43444284Y-90359580D01*
X43444284Y-90359580D02*
X43396665Y-90407200D01*
X43396665Y-90407200D02*
X43301427Y-90454819D01*
X43301427Y-90454819D02*
X43158570Y-90454819D01*
X43920475Y-89788152D02*
X43920475Y-90454819D01*
X43920475Y-89883390D02*
X43968094Y-89835771D01*
X43968094Y-89835771D02*
X44063332Y-89788152D01*
X44063332Y-89788152D02*
X44206189Y-89788152D01*
X44206189Y-89788152D02*
X44301427Y-89835771D01*
X44301427Y-89835771D02*
X44349046Y-89931009D01*
X44349046Y-89931009D02*
X44349046Y-90454819D01*
X44825237Y-89788152D02*
X44825237Y-90454819D01*
X44825237Y-89883390D02*
X44872856Y-89835771D01*
X44872856Y-89835771D02*
X44968094Y-89788152D01*
X44968094Y-89788152D02*
X45110951Y-89788152D01*
X45110951Y-89788152D02*
X45206189Y-89835771D01*
X45206189Y-89835771D02*
X45253808Y-89931009D01*
X45253808Y-89931009D02*
X45253808Y-90454819D01*
X45491904Y-90550057D02*
X46253808Y-90550057D01*
X46682380Y-89454819D02*
X46777618Y-89454819D01*
X46777618Y-89454819D02*
X46872856Y-89502438D01*
X46872856Y-89502438D02*
X46920475Y-89550057D01*
X46920475Y-89550057D02*
X46968094Y-89645295D01*
X46968094Y-89645295D02*
X47015713Y-89835771D01*
X47015713Y-89835771D02*
X47015713Y-90073866D01*
X47015713Y-90073866D02*
X46968094Y-90264342D01*
X46968094Y-90264342D02*
X46920475Y-90359580D01*
X46920475Y-90359580D02*
X46872856Y-90407200D01*
X46872856Y-90407200D02*
X46777618Y-90454819D01*
X46777618Y-90454819D02*
X46682380Y-90454819D01*
X46682380Y-90454819D02*
X46587142Y-90407200D01*
X46587142Y-90407200D02*
X46539523Y-90359580D01*
X46539523Y-90359580D02*
X46491904Y-90264342D01*
X46491904Y-90264342D02*
X46444285Y-90073866D01*
X46444285Y-90073866D02*
X46444285Y-89835771D01*
X46444285Y-89835771D02*
X46491904Y-89645295D01*
X46491904Y-89645295D02*
X46539523Y-89550057D01*
X46539523Y-89550057D02*
X46587142Y-89502438D01*
X46587142Y-89502438D02*
X46682380Y-89454819D01*
X47396666Y-89550057D02*
X47444285Y-89502438D01*
X47444285Y-89502438D02*
X47539523Y-89454819D01*
X47539523Y-89454819D02*
X47777618Y-89454819D01*
X47777618Y-89454819D02*
X47872856Y-89502438D01*
X47872856Y-89502438D02*
X47920475Y-89550057D01*
X47920475Y-89550057D02*
X47968094Y-89645295D01*
X47968094Y-89645295D02*
X47968094Y-89740533D01*
X47968094Y-89740533D02*
X47920475Y-89883390D01*
X47920475Y-89883390D02*
X47349047Y-90454819D01*
X47349047Y-90454819D02*
X47968094Y-90454819D01*
X48301428Y-90454819D02*
X48825237Y-89788152D01*
X48301428Y-89788152D02*
X48825237Y-90454819D01*
X49396666Y-89454819D02*
X49491904Y-89454819D01*
X49491904Y-89454819D02*
X49587142Y-89502438D01*
X49587142Y-89502438D02*
X49634761Y-89550057D01*
X49634761Y-89550057D02*
X49682380Y-89645295D01*
X49682380Y-89645295D02*
X49729999Y-89835771D01*
X49729999Y-89835771D02*
X49729999Y-90073866D01*
X49729999Y-90073866D02*
X49682380Y-90264342D01*
X49682380Y-90264342D02*
X49634761Y-90359580D01*
X49634761Y-90359580D02*
X49587142Y-90407200D01*
X49587142Y-90407200D02*
X49491904Y-90454819D01*
X49491904Y-90454819D02*
X49396666Y-90454819D01*
X49396666Y-90454819D02*
X49301428Y-90407200D01*
X49301428Y-90407200D02*
X49253809Y-90359580D01*
X49253809Y-90359580D02*
X49206190Y-90264342D01*
X49206190Y-90264342D02*
X49158571Y-90073866D01*
X49158571Y-90073866D02*
X49158571Y-89835771D01*
X49158571Y-89835771D02*
X49206190Y-89645295D01*
X49206190Y-89645295D02*
X49253809Y-89550057D01*
X49253809Y-89550057D02*
X49301428Y-89502438D01*
X49301428Y-89502438D02*
X49396666Y-89454819D01*
X50206190Y-90454819D02*
X50396666Y-90454819D01*
X50396666Y-90454819D02*
X50491904Y-90407200D01*
X50491904Y-90407200D02*
X50539523Y-90359580D01*
X50539523Y-90359580D02*
X50634761Y-90216723D01*
X50634761Y-90216723D02*
X50682380Y-90026247D01*
X50682380Y-90026247D02*
X50682380Y-89645295D01*
X50682380Y-89645295D02*
X50634761Y-89550057D01*
X50634761Y-89550057D02*
X50587142Y-89502438D01*
X50587142Y-89502438D02*
X50491904Y-89454819D01*
X50491904Y-89454819D02*
X50301428Y-89454819D01*
X50301428Y-89454819D02*
X50206190Y-89502438D01*
X50206190Y-89502438D02*
X50158571Y-89550057D01*
X50158571Y-89550057D02*
X50110952Y-89645295D01*
X50110952Y-89645295D02*
X50110952Y-89883390D01*
X50110952Y-89883390D02*
X50158571Y-89978628D01*
X50158571Y-89978628D02*
X50206190Y-90026247D01*
X50206190Y-90026247D02*
X50301428Y-90073866D01*
X50301428Y-90073866D02*
X50491904Y-90073866D01*
X50491904Y-90073866D02*
X50587142Y-90026247D01*
X50587142Y-90026247D02*
X50634761Y-89978628D01*
X50634761Y-89978628D02*
X50682380Y-89883390D01*
X50872857Y-90550057D02*
X51634761Y-90550057D01*
X52063333Y-89454819D02*
X52253809Y-89454819D01*
X52253809Y-89454819D02*
X52349047Y-89502438D01*
X52349047Y-89502438D02*
X52444285Y-89597676D01*
X52444285Y-89597676D02*
X52491904Y-89788152D01*
X52491904Y-89788152D02*
X52491904Y-90121485D01*
X52491904Y-90121485D02*
X52444285Y-90311961D01*
X52444285Y-90311961D02*
X52349047Y-90407200D01*
X52349047Y-90407200D02*
X52253809Y-90454819D01*
X52253809Y-90454819D02*
X52063333Y-90454819D01*
X52063333Y-90454819D02*
X51968095Y-90407200D01*
X51968095Y-90407200D02*
X51872857Y-90311961D01*
X51872857Y-90311961D02*
X51825238Y-90121485D01*
X51825238Y-90121485D02*
X51825238Y-89788152D01*
X51825238Y-89788152D02*
X51872857Y-89597676D01*
X51872857Y-89597676D02*
X51968095Y-89502438D01*
X51968095Y-89502438D02*
X52063333Y-89454819D01*
X53349047Y-90454819D02*
X53349047Y-89454819D01*
X53349047Y-90407200D02*
X53253809Y-90454819D01*
X53253809Y-90454819D02*
X53063333Y-90454819D01*
X53063333Y-90454819D02*
X52968095Y-90407200D01*
X52968095Y-90407200D02*
X52920476Y-90359580D01*
X52920476Y-90359580D02*
X52872857Y-90264342D01*
X52872857Y-90264342D02*
X52872857Y-89978628D01*
X52872857Y-89978628D02*
X52920476Y-89883390D01*
X52920476Y-89883390D02*
X52968095Y-89835771D01*
X52968095Y-89835771D02*
X53063333Y-89788152D01*
X53063333Y-89788152D02*
X53253809Y-89788152D01*
X53253809Y-89788152D02*
X53349047Y-89835771D01*
X54253809Y-90454819D02*
X54253809Y-89454819D01*
X54253809Y-90407200D02*
X54158571Y-90454819D01*
X54158571Y-90454819D02*
X53968095Y-90454819D01*
X53968095Y-90454819D02*
X53872857Y-90407200D01*
X53872857Y-90407200D02*
X53825238Y-90359580D01*
X53825238Y-90359580D02*
X53777619Y-90264342D01*
X53777619Y-90264342D02*
X53777619Y-89978628D01*
X53777619Y-89978628D02*
X53825238Y-89883390D01*
X53825238Y-89883390D02*
X53872857Y-89835771D01*
X53872857Y-89835771D02*
X53968095Y-89788152D01*
X53968095Y-89788152D02*
X54158571Y-89788152D01*
X54158571Y-89788152D02*
X54253809Y-89835771D01*
X54491905Y-90550057D02*
X55253809Y-90550057D01*
X55491905Y-89931009D02*
X55825238Y-89931009D01*
X55968095Y-90454819D02*
X55491905Y-90454819D01*
X55491905Y-90454819D02*
X55491905Y-89454819D01*
X55491905Y-89454819D02*
X55968095Y-89454819D01*
X56301429Y-89788152D02*
X56539524Y-90454819D01*
X56539524Y-90454819D02*
X56777619Y-89788152D01*
X57539524Y-90407200D02*
X57444286Y-90454819D01*
X57444286Y-90454819D02*
X57253810Y-90454819D01*
X57253810Y-90454819D02*
X57158572Y-90407200D01*
X57158572Y-90407200D02*
X57110953Y-90311961D01*
X57110953Y-90311961D02*
X57110953Y-89931009D01*
X57110953Y-89931009D02*
X57158572Y-89835771D01*
X57158572Y-89835771D02*
X57253810Y-89788152D01*
X57253810Y-89788152D02*
X57444286Y-89788152D01*
X57444286Y-89788152D02*
X57539524Y-89835771D01*
X57539524Y-89835771D02*
X57587143Y-89931009D01*
X57587143Y-89931009D02*
X57587143Y-90026247D01*
X57587143Y-90026247D02*
X57110953Y-90121485D01*
X58015715Y-89788152D02*
X58015715Y-90454819D01*
X58015715Y-89883390D02*
X58063334Y-89835771D01*
X58063334Y-89835771D02*
X58158572Y-89788152D01*
X58158572Y-89788152D02*
X58301429Y-89788152D01*
X58301429Y-89788152D02*
X58396667Y-89835771D01*
X58396667Y-89835771D02*
X58444286Y-89931009D01*
X58444286Y-89931009D02*
X58444286Y-90454819D01*
X49684819Y-79063333D02*
X50399104Y-79063333D01*
X50399104Y-79063333D02*
X50541961Y-79110952D01*
X50541961Y-79110952D02*
X50637200Y-79206190D01*
X50637200Y-79206190D02*
X50684819Y-79349047D01*
X50684819Y-79349047D02*
X50684819Y-79444285D01*
X50684819Y-78063333D02*
X50684819Y-78634761D01*
X50684819Y-78349047D02*
X49684819Y-78349047D01*
X49684819Y-78349047D02*
X49827676Y-78444285D01*
X49827676Y-78444285D02*
X49922914Y-78539523D01*
X49922914Y-78539523D02*
X49970533Y-78634761D01*
X47177141Y-90359580D02*
X47129522Y-90407200D01*
X47129522Y-90407200D02*
X46986665Y-90454819D01*
X46986665Y-90454819D02*
X46891427Y-90454819D01*
X46891427Y-90454819D02*
X46748570Y-90407200D01*
X46748570Y-90407200D02*
X46653332Y-90311961D01*
X46653332Y-90311961D02*
X46605713Y-90216723D01*
X46605713Y-90216723D02*
X46558094Y-90026247D01*
X46558094Y-90026247D02*
X46558094Y-89883390D01*
X46558094Y-89883390D02*
X46605713Y-89692914D01*
X46605713Y-89692914D02*
X46653332Y-89597676D01*
X46653332Y-89597676D02*
X46748570Y-89502438D01*
X46748570Y-89502438D02*
X46891427Y-89454819D01*
X46891427Y-89454819D02*
X46986665Y-89454819D01*
X46986665Y-89454819D02*
X47129522Y-89502438D01*
X47129522Y-89502438D02*
X47177141Y-89550057D01*
X47748570Y-90454819D02*
X47653332Y-90407200D01*
X47653332Y-90407200D02*
X47605713Y-90359580D01*
X47605713Y-90359580D02*
X47558094Y-90264342D01*
X47558094Y-90264342D02*
X47558094Y-89978628D01*
X47558094Y-89978628D02*
X47605713Y-89883390D01*
X47605713Y-89883390D02*
X47653332Y-89835771D01*
X47653332Y-89835771D02*
X47748570Y-89788152D01*
X47748570Y-89788152D02*
X47891427Y-89788152D01*
X47891427Y-89788152D02*
X47986665Y-89835771D01*
X47986665Y-89835771D02*
X48034284Y-89883390D01*
X48034284Y-89883390D02*
X48081903Y-89978628D01*
X48081903Y-89978628D02*
X48081903Y-90264342D01*
X48081903Y-90264342D02*
X48034284Y-90359580D01*
X48034284Y-90359580D02*
X47986665Y-90407200D01*
X47986665Y-90407200D02*
X47891427Y-90454819D01*
X47891427Y-90454819D02*
X47748570Y-90454819D01*
X48510475Y-89788152D02*
X48510475Y-90454819D01*
X48510475Y-89883390D02*
X48558094Y-89835771D01*
X48558094Y-89835771D02*
X48653332Y-89788152D01*
X48653332Y-89788152D02*
X48796189Y-89788152D01*
X48796189Y-89788152D02*
X48891427Y-89835771D01*
X48891427Y-89835771D02*
X48939046Y-89931009D01*
X48939046Y-89931009D02*
X48939046Y-90454819D01*
X49415237Y-89788152D02*
X49415237Y-90454819D01*
X49415237Y-89883390D02*
X49462856Y-89835771D01*
X49462856Y-89835771D02*
X49558094Y-89788152D01*
X49558094Y-89788152D02*
X49700951Y-89788152D01*
X49700951Y-89788152D02*
X49796189Y-89835771D01*
X49796189Y-89835771D02*
X49843808Y-89931009D01*
X49843808Y-89931009D02*
X49843808Y-90454819D01*
X50081904Y-90550057D02*
X50843808Y-90550057D01*
X51272380Y-89454819D02*
X51367618Y-89454819D01*
X51367618Y-89454819D02*
X51462856Y-89502438D01*
X51462856Y-89502438D02*
X51510475Y-89550057D01*
X51510475Y-89550057D02*
X51558094Y-89645295D01*
X51558094Y-89645295D02*
X51605713Y-89835771D01*
X51605713Y-89835771D02*
X51605713Y-90073866D01*
X51605713Y-90073866D02*
X51558094Y-90264342D01*
X51558094Y-90264342D02*
X51510475Y-90359580D01*
X51510475Y-90359580D02*
X51462856Y-90407200D01*
X51462856Y-90407200D02*
X51367618Y-90454819D01*
X51367618Y-90454819D02*
X51272380Y-90454819D01*
X51272380Y-90454819D02*
X51177142Y-90407200D01*
X51177142Y-90407200D02*
X51129523Y-90359580D01*
X51129523Y-90359580D02*
X51081904Y-90264342D01*
X51081904Y-90264342D02*
X51034285Y-90073866D01*
X51034285Y-90073866D02*
X51034285Y-89835771D01*
X51034285Y-89835771D02*
X51081904Y-89645295D01*
X51081904Y-89645295D02*
X51129523Y-89550057D01*
X51129523Y-89550057D02*
X51177142Y-89502438D01*
X51177142Y-89502438D02*
X51272380Y-89454819D01*
X51986666Y-89550057D02*
X52034285Y-89502438D01*
X52034285Y-89502438D02*
X52129523Y-89454819D01*
X52129523Y-89454819D02*
X52367618Y-89454819D01*
X52367618Y-89454819D02*
X52462856Y-89502438D01*
X52462856Y-89502438D02*
X52510475Y-89550057D01*
X52510475Y-89550057D02*
X52558094Y-89645295D01*
X52558094Y-89645295D02*
X52558094Y-89740533D01*
X52558094Y-89740533D02*
X52510475Y-89883390D01*
X52510475Y-89883390D02*
X51939047Y-90454819D01*
X51939047Y-90454819D02*
X52558094Y-90454819D01*
X52891428Y-90454819D02*
X53415237Y-89788152D01*
X52891428Y-89788152D02*
X53415237Y-90454819D01*
X54319999Y-90454819D02*
X53748571Y-90454819D01*
X54034285Y-90454819D02*
X54034285Y-89454819D01*
X54034285Y-89454819D02*
X53939047Y-89597676D01*
X53939047Y-89597676D02*
X53843809Y-89692914D01*
X53843809Y-89692914D02*
X53748571Y-89740533D01*
X54891428Y-89883390D02*
X54796190Y-89835771D01*
X54796190Y-89835771D02*
X54748571Y-89788152D01*
X54748571Y-89788152D02*
X54700952Y-89692914D01*
X54700952Y-89692914D02*
X54700952Y-89645295D01*
X54700952Y-89645295D02*
X54748571Y-89550057D01*
X54748571Y-89550057D02*
X54796190Y-89502438D01*
X54796190Y-89502438D02*
X54891428Y-89454819D01*
X54891428Y-89454819D02*
X55081904Y-89454819D01*
X55081904Y-89454819D02*
X55177142Y-89502438D01*
X55177142Y-89502438D02*
X55224761Y-89550057D01*
X55224761Y-89550057D02*
X55272380Y-89645295D01*
X55272380Y-89645295D02*
X55272380Y-89692914D01*
X55272380Y-89692914D02*
X55224761Y-89788152D01*
X55224761Y-89788152D02*
X55177142Y-89835771D01*
X55177142Y-89835771D02*
X55081904Y-89883390D01*
X55081904Y-89883390D02*
X54891428Y-89883390D01*
X54891428Y-89883390D02*
X54796190Y-89931009D01*
X54796190Y-89931009D02*
X54748571Y-89978628D01*
X54748571Y-89978628D02*
X54700952Y-90073866D01*
X54700952Y-90073866D02*
X54700952Y-90264342D01*
X54700952Y-90264342D02*
X54748571Y-90359580D01*
X54748571Y-90359580D02*
X54796190Y-90407200D01*
X54796190Y-90407200D02*
X54891428Y-90454819D01*
X54891428Y-90454819D02*
X55081904Y-90454819D01*
X55081904Y-90454819D02*
X55177142Y-90407200D01*
X55177142Y-90407200D02*
X55224761Y-90359580D01*
X55224761Y-90359580D02*
X55272380Y-90264342D01*
X55272380Y-90264342D02*
X55272380Y-90073866D01*
X55272380Y-90073866D02*
X55224761Y-89978628D01*
X55224761Y-89978628D02*
X55177142Y-89931009D01*
X55177142Y-89931009D02*
X55081904Y-89883390D01*
X55462857Y-90550057D02*
X56224761Y-90550057D01*
X56653333Y-89454819D02*
X56843809Y-89454819D01*
X56843809Y-89454819D02*
X56939047Y-89502438D01*
X56939047Y-89502438D02*
X57034285Y-89597676D01*
X57034285Y-89597676D02*
X57081904Y-89788152D01*
X57081904Y-89788152D02*
X57081904Y-90121485D01*
X57081904Y-90121485D02*
X57034285Y-90311961D01*
X57034285Y-90311961D02*
X56939047Y-90407200D01*
X56939047Y-90407200D02*
X56843809Y-90454819D01*
X56843809Y-90454819D02*
X56653333Y-90454819D01*
X56653333Y-90454819D02*
X56558095Y-90407200D01*
X56558095Y-90407200D02*
X56462857Y-90311961D01*
X56462857Y-90311961D02*
X56415238Y-90121485D01*
X56415238Y-90121485D02*
X56415238Y-89788152D01*
X56415238Y-89788152D02*
X56462857Y-89597676D01*
X56462857Y-89597676D02*
X56558095Y-89502438D01*
X56558095Y-89502438D02*
X56653333Y-89454819D01*
X57939047Y-90454819D02*
X57939047Y-89454819D01*
X57939047Y-90407200D02*
X57843809Y-90454819D01*
X57843809Y-90454819D02*
X57653333Y-90454819D01*
X57653333Y-90454819D02*
X57558095Y-90407200D01*
X57558095Y-90407200D02*
X57510476Y-90359580D01*
X57510476Y-90359580D02*
X57462857Y-90264342D01*
X57462857Y-90264342D02*
X57462857Y-89978628D01*
X57462857Y-89978628D02*
X57510476Y-89883390D01*
X57510476Y-89883390D02*
X57558095Y-89835771D01*
X57558095Y-89835771D02*
X57653333Y-89788152D01*
X57653333Y-89788152D02*
X57843809Y-89788152D01*
X57843809Y-89788152D02*
X57939047Y-89835771D01*
X58843809Y-90454819D02*
X58843809Y-89454819D01*
X58843809Y-90407200D02*
X58748571Y-90454819D01*
X58748571Y-90454819D02*
X58558095Y-90454819D01*
X58558095Y-90454819D02*
X58462857Y-90407200D01*
X58462857Y-90407200D02*
X58415238Y-90359580D01*
X58415238Y-90359580D02*
X58367619Y-90264342D01*
X58367619Y-90264342D02*
X58367619Y-89978628D01*
X58367619Y-89978628D02*
X58415238Y-89883390D01*
X58415238Y-89883390D02*
X58462857Y-89835771D01*
X58462857Y-89835771D02*
X58558095Y-89788152D01*
X58558095Y-89788152D02*
X58748571Y-89788152D01*
X58748571Y-89788152D02*
X58843809Y-89835771D01*
X59081905Y-90550057D02*
X59843809Y-90550057D01*
X60081905Y-89931009D02*
X60415238Y-89931009D01*
X60558095Y-90454819D02*
X60081905Y-90454819D01*
X60081905Y-90454819D02*
X60081905Y-89454819D01*
X60081905Y-89454819D02*
X60558095Y-89454819D01*
X60891429Y-89788152D02*
X61129524Y-90454819D01*
X61129524Y-90454819D02*
X61367619Y-89788152D01*
X62129524Y-90407200D02*
X62034286Y-90454819D01*
X62034286Y-90454819D02*
X61843810Y-90454819D01*
X61843810Y-90454819D02*
X61748572Y-90407200D01*
X61748572Y-90407200D02*
X61700953Y-90311961D01*
X61700953Y-90311961D02*
X61700953Y-89931009D01*
X61700953Y-89931009D02*
X61748572Y-89835771D01*
X61748572Y-89835771D02*
X61843810Y-89788152D01*
X61843810Y-89788152D02*
X62034286Y-89788152D01*
X62034286Y-89788152D02*
X62129524Y-89835771D01*
X62129524Y-89835771D02*
X62177143Y-89931009D01*
X62177143Y-89931009D02*
X62177143Y-90026247D01*
X62177143Y-90026247D02*
X61700953Y-90121485D01*
X62605715Y-89788152D02*
X62605715Y-90454819D01*
X62605715Y-89883390D02*
X62653334Y-89835771D01*
X62653334Y-89835771D02*
X62748572Y-89788152D01*
X62748572Y-89788152D02*
X62891429Y-89788152D01*
X62891429Y-89788152D02*
X62986667Y-89835771D01*
X62986667Y-89835771D02*
X63034286Y-89931009D01*
X63034286Y-89931009D02*
X63034286Y-90454819D01*
X54274819Y-79063333D02*
X54989104Y-79063333D01*
X54989104Y-79063333D02*
X55131961Y-79110952D01*
X55131961Y-79110952D02*
X55227200Y-79206190D01*
X55227200Y-79206190D02*
X55274819Y-79349047D01*
X55274819Y-79349047D02*
X55274819Y-79444285D01*
X54370057Y-78634761D02*
X54322438Y-78587142D01*
X54322438Y-78587142D02*
X54274819Y-78491904D01*
X54274819Y-78491904D02*
X54274819Y-78253809D01*
X54274819Y-78253809D02*
X54322438Y-78158571D01*
X54322438Y-78158571D02*
X54370057Y-78110952D01*
X54370057Y-78110952D02*
X54465295Y-78063333D01*
X54465295Y-78063333D02*
X54560533Y-78063333D01*
X54560533Y-78063333D02*
X54703390Y-78110952D01*
X54703390Y-78110952D02*
X55274819Y-78682380D01*
X55274819Y-78682380D02*
X55274819Y-78063333D01*
X66780475Y-90550057D02*
X66685237Y-90502438D01*
X66685237Y-90502438D02*
X66589999Y-90407200D01*
X66589999Y-90407200D02*
X66447142Y-90264342D01*
X66447142Y-90264342D02*
X66351904Y-90216723D01*
X66351904Y-90216723D02*
X66256666Y-90216723D01*
X66304285Y-90454819D02*
X66209047Y-90407200D01*
X66209047Y-90407200D02*
X66113809Y-90311961D01*
X66113809Y-90311961D02*
X66066190Y-90121485D01*
X66066190Y-90121485D02*
X66066190Y-89788152D01*
X66066190Y-89788152D02*
X66113809Y-89597676D01*
X66113809Y-89597676D02*
X66209047Y-89502438D01*
X66209047Y-89502438D02*
X66304285Y-89454819D01*
X66304285Y-89454819D02*
X66494761Y-89454819D01*
X66494761Y-89454819D02*
X66589999Y-89502438D01*
X66589999Y-89502438D02*
X66685237Y-89597676D01*
X66685237Y-89597676D02*
X66732856Y-89788152D01*
X66732856Y-89788152D02*
X66732856Y-90121485D01*
X66732856Y-90121485D02*
X66685237Y-90311961D01*
X66685237Y-90311961D02*
X66589999Y-90407200D01*
X66589999Y-90407200D02*
X66494761Y-90454819D01*
X66494761Y-90454819D02*
X66304285Y-90454819D01*
X66923333Y-90550057D02*
X67685237Y-90550057D01*
X67780476Y-89454819D02*
X68351904Y-89454819D01*
X68066190Y-90454819D02*
X68066190Y-89454819D01*
X68685238Y-90454819D02*
X68685238Y-89788152D01*
X68685238Y-89978628D02*
X68732857Y-89883390D01*
X68732857Y-89883390D02*
X68780476Y-89835771D01*
X68780476Y-89835771D02*
X68875714Y-89788152D01*
X68875714Y-89788152D02*
X68970952Y-89788152D01*
X69304286Y-90454819D02*
X69304286Y-89788152D01*
X69304286Y-89454819D02*
X69256667Y-89502438D01*
X69256667Y-89502438D02*
X69304286Y-89550057D01*
X69304286Y-89550057D02*
X69351905Y-89502438D01*
X69351905Y-89502438D02*
X69304286Y-89454819D01*
X69304286Y-89454819D02*
X69304286Y-89550057D01*
X70209047Y-90454819D02*
X70209047Y-89931009D01*
X70209047Y-89931009D02*
X70161428Y-89835771D01*
X70161428Y-89835771D02*
X70066190Y-89788152D01*
X70066190Y-89788152D02*
X69875714Y-89788152D01*
X69875714Y-89788152D02*
X69780476Y-89835771D01*
X70209047Y-90407200D02*
X70113809Y-90454819D01*
X70113809Y-90454819D02*
X69875714Y-90454819D01*
X69875714Y-90454819D02*
X69780476Y-90407200D01*
X69780476Y-90407200D02*
X69732857Y-90311961D01*
X69732857Y-90311961D02*
X69732857Y-90216723D01*
X69732857Y-90216723D02*
X69780476Y-90121485D01*
X69780476Y-90121485D02*
X69875714Y-90073866D01*
X69875714Y-90073866D02*
X70113809Y-90073866D01*
X70113809Y-90073866D02*
X70209047Y-90026247D01*
X71113809Y-90407200D02*
X71018571Y-90454819D01*
X71018571Y-90454819D02*
X70828095Y-90454819D01*
X70828095Y-90454819D02*
X70732857Y-90407200D01*
X70732857Y-90407200D02*
X70685238Y-90359580D01*
X70685238Y-90359580D02*
X70637619Y-90264342D01*
X70637619Y-90264342D02*
X70637619Y-89978628D01*
X70637619Y-89978628D02*
X70685238Y-89883390D01*
X70685238Y-89883390D02*
X70732857Y-89835771D01*
X70732857Y-89835771D02*
X70828095Y-89788152D01*
X70828095Y-89788152D02*
X71018571Y-89788152D01*
X71018571Y-89788152D02*
X71113809Y-89835771D01*
X68044819Y-79491904D02*
X68854342Y-79491904D01*
X68854342Y-79491904D02*
X68949580Y-79444285D01*
X68949580Y-79444285D02*
X68997200Y-79396666D01*
X68997200Y-79396666D02*
X69044819Y-79301428D01*
X69044819Y-79301428D02*
X69044819Y-79110952D01*
X69044819Y-79110952D02*
X68997200Y-79015714D01*
X68997200Y-79015714D02*
X68949580Y-78968095D01*
X68949580Y-78968095D02*
X68854342Y-78920476D01*
X68854342Y-78920476D02*
X68044819Y-78920476D01*
X68378152Y-78015714D02*
X69044819Y-78015714D01*
X67997200Y-78253809D02*
X68711485Y-78491904D01*
X68711485Y-78491904D02*
X68711485Y-77872857D01*
X123333333Y-111327200D02*
X123476190Y-111374819D01*
X123476190Y-111374819D02*
X123714285Y-111374819D01*
X123714285Y-111374819D02*
X123809523Y-111327200D01*
X123809523Y-111327200D02*
X123857142Y-111279580D01*
X123857142Y-111279580D02*
X123904761Y-111184342D01*
X123904761Y-111184342D02*
X123904761Y-111089104D01*
X123904761Y-111089104D02*
X123857142Y-110993866D01*
X123857142Y-110993866D02*
X123809523Y-110946247D01*
X123809523Y-110946247D02*
X123714285Y-110898628D01*
X123714285Y-110898628D02*
X123523809Y-110851009D01*
X123523809Y-110851009D02*
X123428571Y-110803390D01*
X123428571Y-110803390D02*
X123380952Y-110755771D01*
X123380952Y-110755771D02*
X123333333Y-110660533D01*
X123333333Y-110660533D02*
X123333333Y-110565295D01*
X123333333Y-110565295D02*
X123380952Y-110470057D01*
X123380952Y-110470057D02*
X123428571Y-110422438D01*
X123428571Y-110422438D02*
X123523809Y-110374819D01*
X123523809Y-110374819D02*
X123761904Y-110374819D01*
X123761904Y-110374819D02*
X123904761Y-110422438D01*
X124238095Y-110374819D02*
X124904761Y-111374819D01*
X124904761Y-110374819D02*
X124238095Y-111374819D01*
X125809523Y-111374819D02*
X125238095Y-111374819D01*
X125523809Y-111374819D02*
X125523809Y-110374819D01*
X125523809Y-110374819D02*
X125428571Y-110517676D01*
X125428571Y-110517676D02*
X125333333Y-110612914D01*
X125333333Y-110612914D02*
X125238095Y-110660533D01*
X126190476Y-110470057D02*
X126238095Y-110422438D01*
X126238095Y-110422438D02*
X126333333Y-110374819D01*
X126333333Y-110374819D02*
X126571428Y-110374819D01*
X126571428Y-110374819D02*
X126666666Y-110422438D01*
X126666666Y-110422438D02*
X126714285Y-110470057D01*
X126714285Y-110470057D02*
X126761904Y-110565295D01*
X126761904Y-110565295D02*
X126761904Y-110660533D01*
X126761904Y-110660533D02*
X126714285Y-110803390D01*
X126714285Y-110803390D02*
X126142857Y-111374819D01*
X126142857Y-111374819D02*
X126761904Y-111374819D01*
X127095238Y-110374819D02*
X127761904Y-110374819D01*
X127761904Y-110374819D02*
X127333333Y-111374819D01*
X128571428Y-110374819D02*
X128380952Y-110374819D01*
X128380952Y-110374819D02*
X128285714Y-110422438D01*
X128285714Y-110422438D02*
X128238095Y-110470057D01*
X128238095Y-110470057D02*
X128142857Y-110612914D01*
X128142857Y-110612914D02*
X128095238Y-110803390D01*
X128095238Y-110803390D02*
X128095238Y-111184342D01*
X128095238Y-111184342D02*
X128142857Y-111279580D01*
X128142857Y-111279580D02*
X128190476Y-111327200D01*
X128190476Y-111327200D02*
X128285714Y-111374819D01*
X128285714Y-111374819D02*
X128476190Y-111374819D01*
X128476190Y-111374819D02*
X128571428Y-111327200D01*
X128571428Y-111327200D02*
X128619047Y-111279580D01*
X128619047Y-111279580D02*
X128666666Y-111184342D01*
X128666666Y-111184342D02*
X128666666Y-110946247D01*
X128666666Y-110946247D02*
X128619047Y-110851009D01*
X128619047Y-110851009D02*
X128571428Y-110803390D01*
X128571428Y-110803390D02*
X128476190Y-110755771D01*
X128476190Y-110755771D02*
X128285714Y-110755771D01*
X128285714Y-110755771D02*
X128190476Y-110803390D01*
X128190476Y-110803390D02*
X128142857Y-110851009D01*
X128142857Y-110851009D02*
X128095238Y-110946247D01*
X125454819Y-100411904D02*
X126264342Y-100411904D01*
X126264342Y-100411904D02*
X126359580Y-100364285D01*
X126359580Y-100364285D02*
X126407200Y-100316666D01*
X126407200Y-100316666D02*
X126454819Y-100221428D01*
X126454819Y-100221428D02*
X126454819Y-100030952D01*
X126454819Y-100030952D02*
X126407200Y-99935714D01*
X126407200Y-99935714D02*
X126359580Y-99888095D01*
X126359580Y-99888095D02*
X126264342Y-99840476D01*
X126264342Y-99840476D02*
X125454819Y-99840476D01*
X125454819Y-98888095D02*
X125454819Y-99364285D01*
X125454819Y-99364285D02*
X125931009Y-99411904D01*
X125931009Y-99411904D02*
X125883390Y-99364285D01*
X125883390Y-99364285D02*
X125835771Y-99269047D01*
X125835771Y-99269047D02*
X125835771Y-99030952D01*
X125835771Y-99030952D02*
X125883390Y-98935714D01*
X125883390Y-98935714D02*
X125931009Y-98888095D01*
X125931009Y-98888095D02*
X126026247Y-98840476D01*
X126026247Y-98840476D02*
X126264342Y-98840476D01*
X126264342Y-98840476D02*
X126359580Y-98888095D01*
X126359580Y-98888095D02*
X126407200Y-98935714D01*
X126407200Y-98935714D02*
X126454819Y-99030952D01*
X126454819Y-99030952D02*
X126454819Y-99269047D01*
X126454819Y-99269047D02*
X126407200Y-99364285D01*
X126407200Y-99364285D02*
X126359580Y-99411904D01*
D11*
%TO.C,U2*%
X109730000Y-90165000D02*
X110365000Y-89530000D01*
X109730000Y-109850000D02*
X109730000Y-90165000D01*
X110365000Y-89530000D02*
X112270000Y-89530000D01*
X112270000Y-89530000D02*
X112270000Y-109850000D01*
X112270000Y-109850000D02*
X109730000Y-109850000D01*
%TO.C,U1*%
X58140000Y-69205000D02*
X58775000Y-68570000D01*
X58140000Y-88890000D02*
X58140000Y-69205000D01*
X58775000Y-68570000D02*
X60680000Y-68570000D01*
X60680000Y-68570000D02*
X60680000Y-88890000D01*
X60680000Y-88890000D02*
X58140000Y-88890000D01*
%TO.C,U7*%
X76500000Y-69205000D02*
X77135000Y-68570000D01*
X76500000Y-88890000D02*
X76500000Y-69205000D01*
X77135000Y-68570000D02*
X79040000Y-68570000D01*
X79040000Y-68570000D02*
X79040000Y-88890000D01*
X79040000Y-88890000D02*
X76500000Y-88890000D01*
%TO.C,U3*%
X62730000Y-69205000D02*
X63365000Y-68570000D01*
X62730000Y-88890000D02*
X62730000Y-69205000D01*
X63365000Y-68570000D02*
X65270000Y-68570000D01*
X65270000Y-68570000D02*
X65270000Y-88890000D01*
X65270000Y-88890000D02*
X62730000Y-88890000D01*
%TO.C,U6*%
X71910000Y-69205000D02*
X72545000Y-68570000D01*
X71910000Y-88890000D02*
X71910000Y-69205000D01*
X72545000Y-68570000D02*
X74450000Y-68570000D01*
X74450000Y-68570000D02*
X74450000Y-88890000D01*
X74450000Y-88890000D02*
X71910000Y-88890000D01*
%TO.C,J1*%
X48960000Y-69205000D02*
X49595000Y-68570000D01*
X48960000Y-88890000D02*
X48960000Y-69205000D01*
X49595000Y-68570000D02*
X51500000Y-68570000D01*
X51500000Y-68570000D02*
X51500000Y-88890000D01*
X51500000Y-88890000D02*
X48960000Y-88890000D01*
%TO.C,J2*%
X53550000Y-69205000D02*
X54185000Y-68570000D01*
X53550000Y-88890000D02*
X53550000Y-69205000D01*
X54185000Y-68570000D02*
X56090000Y-68570000D01*
X56090000Y-68570000D02*
X56090000Y-88890000D01*
X56090000Y-88890000D02*
X53550000Y-88890000D01*
%TO.C,U4*%
X67320000Y-69205000D02*
X67955000Y-68570000D01*
X67320000Y-88890000D02*
X67320000Y-69205000D01*
X67955000Y-68570000D02*
X69860000Y-68570000D01*
X69860000Y-68570000D02*
X69860000Y-88890000D01*
X69860000Y-88890000D02*
X67320000Y-88890000D01*
%TO.C,U5*%
X124730000Y-90125000D02*
X125365000Y-89490000D01*
X124730000Y-109810000D02*
X124730000Y-90125000D01*
X125365000Y-89490000D02*
X127270000Y-89490000D01*
X127270000Y-89490000D02*
X127270000Y-109810000D01*
X127270000Y-109810000D02*
X124730000Y-109810000D01*
%TD*%
M02*
