%TF.GenerationSoftware,KiCad,Pcbnew,9.0.6*%
%TF.CreationDate,2025-12-05T03:52:04+01:00*%
%TF.ProjectId,Vikingboard,56696b69-6e67-4626-9f61-72642e6b6963,rev?*%
%TF.SameCoordinates,Original*%
%TF.FileFunction,Copper,L1,Top*%
%TF.FilePolarity,Positive*%
%FSLAX46Y46*%
G04 Gerber Fmt 4.6, Leading zero omitted, Abs format (unit mm)*
G04 Created by KiCad (PCBNEW 9.0.6) date 2025-12-05 03:52:04*
%MOMM*%
%LPD*%
G01*
G04 APERTURE LIST*
%TA.AperFunction,ComponentPad*%
%ADD10R,1.700000X1.700000*%
%TD*%
%TA.AperFunction,ComponentPad*%
%ADD11C,1.700000*%
%TD*%
G04 APERTURE END LIST*
D10*
%TO.P,U2,1,REG*%
%TO.N,NRF24_IRQ*%
X111000000Y-90800000D03*
D11*
%TO.P,U2,2,SCL*%
%TO.N,KBD_RST*%
X111000000Y-93340000D03*
%TO.P,U2,3,SDA*%
%TO.N,KBD_INT*%
X111000000Y-95880000D03*
%TO.P,U2,4,IN/TRIG*%
%TO.N,FZ_GPIO1*%
X111000000Y-98420000D03*
%TO.P,U2,5,EN*%
%TO.N,FZ_GPIO2*%
X111000000Y-100960000D03*
%TO.P,U2,6,VDD/NC*%
%TO.N,FZ_GPIO3*%
X111000000Y-103500000D03*
%TO.P,U2,7,OUT+*%
%TO.N,FZ_GPIO4*%
X111000000Y-106040000D03*
%TO.P,U2,8,GND*%
%TO.N,FZ_GPIO5*%
X111000000Y-108580000D03*
%TD*%
D10*
%TO.P,U1,1,Pin_1*%
%TO.N,+5V_SYS*%
X59410000Y-69840000D03*
D11*
%TO.P,U1,2,Pin_2*%
%TO.N,GND*%
X59410000Y-72380000D03*
%TO.P,U1,3,Pin_3*%
%TO.N,EN*%
X59410000Y-74920000D03*
%TO.P,U1,4,Pin_4*%
%TO.N,SPI_SCK*%
X59410000Y-77460000D03*
%TO.P,U1,5,Pin_5*%
%TO.N,SPI_MOSI*%
X59410000Y-80000000D03*
%TO.P,U1,6*%
%TO.N,N/C*%
X59410000Y-82540000D03*
%TO.P,U1,7*%
X59410000Y-85080000D03*
%TO.P,U1,8*%
X59410000Y-87620000D03*
%TD*%
D10*
%TO.P,U7,1,Pin_1*%
%TO.N,+3V3_IO*%
X77770000Y-69840000D03*
D11*
%TO.P,U7,2,Pin_2*%
%TO.N,GND*%
X77770000Y-72380000D03*
%TO.P,U7,3,Pin_3*%
%TO.N,GPS_RX*%
X77770000Y-74920000D03*
%TO.P,U7,4,Pin_4*%
%TO.N,GPS_TX*%
X77770000Y-77460000D03*
%TO.P,U7,5,Pin_5*%
%TO.N,GPS_PPS*%
X77770000Y-80000000D03*
%TO.P,U7,6,Pin_6*%
%TO.N,GND*%
X77770000Y-82540000D03*
%TO.P,U7,7,Pin_7*%
X77770000Y-85080000D03*
%TO.P,U7,8,Pin_8*%
X77770000Y-87620000D03*
%TD*%
D10*
%TO.P,U3,1,OD/CLK*%
%TO.N,+3V3_RF*%
X64000000Y-69840000D03*
D11*
%TO.P,U3,2,I0*%
%TO.N,GND*%
X64000000Y-72380000D03*
%TO.P,U3,3,I1*%
%TO.N,EN*%
X64000000Y-74920000D03*
%TO.P,U3,4,I2*%
%TO.N,LORA_BUSY*%
X64000000Y-77460000D03*
%TO.P,U3,5,I3*%
%TO.N,LORA_DIO1*%
X64000000Y-80000000D03*
%TO.P,U3,6,I4*%
%TO.N,LORA_CS*%
X64000000Y-82540000D03*
%TO.P,U3,7,I5*%
%TO.N,SPI_SCK*%
X64000000Y-85080000D03*
%TO.P,U3,8,I6*%
%TO.N,SPI_MOSI*%
X64000000Y-87620000D03*
%TD*%
D10*
%TO.P,U6,1,Pin_1*%
%TO.N,KBD_INT*%
X73180000Y-69840000D03*
D11*
%TO.P,U6,2,Pin_2*%
%TO.N,I2C_SCL*%
X73180000Y-72380000D03*
%TO.P,U6,3,Pin_3*%
%TO.N,I2C_SDA*%
X73180000Y-74920000D03*
%TO.P,U6,4,Pin_4*%
%TO.N,KBD_RST*%
X73180000Y-77460000D03*
%TO.P,U6,5,Pin_5*%
%TO.N,GND*%
X73180000Y-80000000D03*
%TO.P,U6,6,Pin_6*%
%TO.N,+3V3_KBD*%
X73180000Y-82540000D03*
%TO.P,U6,7,Pin_7*%
%TO.N,GND*%
X73180000Y-85080000D03*
%TO.P,U6,8,Pin_8*%
X73180000Y-87620000D03*
%TD*%
D10*
%TO.P,J1,1,Pin_1*%
%TO.N,+5V_SYS*%
X50230000Y-69840000D03*
D11*
%TO.P,J1,2,Pin_2*%
%TO.N,+3V3_IO*%
X50230000Y-72380000D03*
%TO.P,J1,3,Pin_3*%
%TO.N,GND*%
X50230000Y-74920000D03*
%TO.P,J1,4,Pin_4*%
%TO.N,GPS_RX*%
X50230000Y-77460000D03*
%TO.P,J1,5,Pin_5*%
%TO.N,I2C_SCL*%
X50230000Y-80000000D03*
%TO.P,J1,6,Pin_6*%
%TO.N,I2C_SDA*%
X50230000Y-82540000D03*
%TO.P,J1,7,Pin_7*%
%TO.N,SPI_SCK*%
X50230000Y-85080000D03*
%TO.P,J1,8,Pin_8*%
%TO.N,SPI_MOSI*%
X50230000Y-87620000D03*
%TD*%
D10*
%TO.P,J2,1,Pin_1*%
%TO.N,SPI_MISO*%
X54820000Y-69840000D03*
D11*
%TO.P,J2,2,Pin_2*%
%TO.N,GPS_TX*%
X54820000Y-72380000D03*
%TO.P,J2,3,Pin_3*%
%TO.N,FZ_GPIO1*%
X54820000Y-74920000D03*
%TO.P,J2,4,Pin_4*%
%TO.N,FZ_GPIO2*%
X54820000Y-77460000D03*
%TO.P,J2,5,Pin_5*%
%TO.N,FZ_GPIO3*%
X54820000Y-80000000D03*
%TO.P,J2,6,Pin_6*%
%TO.N,FZ_GPIO4*%
X54820000Y-82540000D03*
%TO.P,J2,7,Pin_7*%
%TO.N,FZ_GPIO5*%
X54820000Y-85080000D03*
%TO.P,J2,8,Pin_8*%
%TO.N,EN*%
X54820000Y-87620000D03*
%TD*%
D10*
%TO.P,U4,1*%
%TO.N,+3V3_RF*%
X68590000Y-69840000D03*
D11*
%TO.P,U4,2*%
%TO.N,GND*%
X68590000Y-72380000D03*
%TO.P,U4,3*%
%TO.N,CC1101_CS*%
X68590000Y-74920000D03*
%TO.P,U4,4*%
%TO.N,SPI_SCK*%
X68590000Y-77460000D03*
%TO.P,U4,5*%
%TO.N,SPI_MOSI*%
X68590000Y-80000000D03*
%TO.P,U4,6*%
%TO.N,SPI_MISO*%
X68590000Y-82540000D03*
%TO.P,U4,7*%
%TO.N,CC1101_GDO0*%
X68590000Y-85080000D03*
%TO.P,U4,8*%
%TO.N,GND*%
X68590000Y-87620000D03*
%TD*%
D10*
%TO.P,U5,1,RFI_LF*%
%TO.N,+3V3_RF*%
X126000000Y-90760000D03*
D11*
%TO.P,U5,2,VR_ANA*%
%TO.N,GND*%
X126000000Y-93300000D03*
%TO.P,U5,3,VBAT_ANA*%
%TO.N,SPI_SCK*%
X126000000Y-95840000D03*
%TO.P,U5,4,VR_DIG*%
%TO.N,SPI_MOSI*%
X126000000Y-98380000D03*
%TO.P,U5,5,XTA*%
%TO.N,SPI_MISO*%
X126000000Y-100920000D03*
%TO.P,U5,6,XTB*%
%TO.N,NRF24_CS*%
X126000000Y-103460000D03*
%TO.P,U5,7,~{RESET}*%
%TO.N,NRF24_CE*%
X126000000Y-106000000D03*
%TO.P,U5,8,DIO0*%
%TO.N,NRF24_IRQ*%
X126000000Y-108540000D03*
%TD*%
M02*
